<svg id="Capa_1" data-name="Capa 1" xmlns="http://www.w3.org/2000/svg" viewBox="0 0 34.84 34.84"><path d="M30.32,5.68A17.42,17.42,0,0,0,5.68,30.32,17.42,17.42,0,0,0,30.32,5.68ZM18,34.1A16.1,16.1,0,1,1,34.1,18,16.12,16.12,0,0,1,18,34.1Z" transform="translate(-0.58 -0.58)"/><path d="M30.48,19.89a12.31,12.31,0,0,0-2.58-7.54l0-1.64v0l-.48-2.15A.85.85,0,0,0,26.15,8L24.24,9l-.11.07a12.35,12.35,0,0,0-12.21.07L11.73,9l-2-1a.84.84,0,0,0-1.27.62l-.43,2.16.07,1.74a12.29,12.29,0,0,0-2.46,7.39,5.39,5.39,0,0,0,.94,2.6C7.39,23.64,9,25,12.13,25.22l.49.66,3.89,3.74a2.94,2.94,0,0,0,2.06.84,3,3,0,0,0,2.07-.84l3.89-3.75.2-.38c3-.4,4.44-1.85,5.09-3A5.21,5.21,0,0,0,30.48,19.89Zm-22.95,2a4.38,4.38,0,0,1-.75-2A11.71,11.71,0,0,1,7,17.67a1.67,1.67,0,0,0,.73.47l.09,0a4.87,4.87,0,0,0,.75,2.06l-.15.11L11.21,24A5.31,5.31,0,0,1,7.53,21.9Zm12.76,6.54s0-.07,0-.1a1.75,1.75,0,1,0-3.49,0v.05l-3.37-3.24-.64-.84v-.14H12.7l-1.5-2a4.81,4.81,0,0,0,6.31-4.64,5.35,5.35,0,0,0-.07-.7,4.48,4.48,0,0,1,1.16,0,4.05,4.05,0,0,0-.07.7,4.88,4.88,0,0,0,4.87,4.88,4.82,4.82,0,0,0,2-.43l-1.33,2.47h0v.06l-.33.61Zm8.56-6.5a4.86,4.86,0,0,1-3.45,2.32l2.18-4-.09,0A4.84,4.84,0,0,0,28.23,18a.9.9,0,0,0,.53-.68c0-.35-.26-.58-.57-.71a4.87,4.87,0,0,0-9.54-.15,4.44,4.44,0,0,0-1.26,0,4.87,4.87,0,0,0-9.51,0h0a1.56,1.56,0,0,0-.61.19,11.3,11.3,0,0,1,22.13,3.23A4.23,4.23,0,0,1,28.85,21.94Z" transform="translate(-0.58 -0.58)"/></svg>