<svg id="Capa_1" data-name="Capa 1" xmlns="http://www.w3.org/2000/svg" xmlns:xlink="http://www.w3.org/1999/xlink" viewBox="0 0 31.41 48"><defs><style>.cls-1{fill:none;}.cls-2{fill:#fff;}.cls-3{clip-path:url(#clip-path);}.cls-4{fill:#d7d7d7;}.cls-5{fill:#d6d6d6;}.cls-6{fill:#d5d5d5;}.cls-7{fill:#d4d4d4;}.cls-8{fill:#d3d2d2;}.cls-9{fill:#d1d1d1;}.cls-10{fill:#d0d0d0;}.cls-11{fill:#cfcfcf;}.cls-12{fill:#cecece;}.cls-13{fill:#cdcdcd;}.cls-14{fill:#ccc;}.cls-15{fill:#cbcbcb;}.cls-16{fill:#cacaca;}.cls-17{fill:#c9c9c9;}.cls-18{fill:#c8c8c8;}.cls-19{fill:#c7c7c7;}.cls-20{fill:#c6c6c6;}.cls-21{fill:#c5c5c5;}.cls-22{fill:#c4c3c3;}.cls-23{fill:#c3c2c2;}.cls-24{fill:#c2c1c1;}.cls-25{fill:#c1c0c0;}.cls-26{fill:#bfbfbf;}.cls-27{fill:#bebebe;}.cls-28{fill:#bdbdbd;}.cls-29{fill:#bcbcbc;}.cls-30{fill:#bbb;}.cls-31{fill:#bababa;}.cls-32{fill:#b9b9b9;}.cls-33{fill:#b8b8b8;}.cls-34{fill:#b7b7b7;}.cls-35{fill:#b6b6b6;}.cls-36{fill:#b5b5b5;}.cls-37{fill:#b4b4b4;}.cls-38{fill:#b3b3b3;}.cls-39{fill:#b2b2b2;}.cls-40{fill:#b1b0b0;}.cls-41{fill:#b0afaf;}.cls-42{fill:#afaeae;}.cls-43{fill:#aeadad;}.cls-44{fill:#adacac;}.cls-45{fill:#acabab;}.cls-46{fill:#abaaaa;}.cls-47{fill:#aaa9a9;}.cls-48{fill:#a9a8a8;}.cls-49{fill:#a8a7a7;}.cls-50{fill:#a7a6a6;}.cls-51{fill:#a6a5a5;}.cls-52{fill:#a5a4a4;}.cls-53{fill:#a4a3a3;}.cls-54{fill:#a2a2a2;}.cls-55{fill:#a1a1a1;}.cls-56{fill:#a0a0a0;}.cls-57{fill:#9f9f9f;}.cls-58{fill:#9e9e9e;}.cls-59{fill:#9d9d9d;}.cls-60{fill:#9c9c9c;}.cls-61{fill:#9b9b9b;}.cls-62{fill:#9a9a9a;}.cls-63{fill:#999;}.cls-64{fill:#989898;}.cls-65{fill:#979797;}.cls-66{fill:#969696;}.cls-67{fill:#959595;}.cls-68{fill:#949494;}.cls-69{fill:#939393;}.cls-70{fill:#929292;}.cls-71{fill:#919191;}.cls-72{fill:#909090;}.cls-73{fill:#8f8f8f;}.cls-74{fill:#8e8e8e;}.cls-75{fill:#8d8d8d;}.cls-76{fill:#8c8c8c;}.cls-77{fill:#8b8b8b;}.cls-78{fill:#8a8a8a;}.cls-79{fill:#8a8989;}.cls-80{fill:#898888;}.cls-81{fill:#888787;}.cls-82{fill:#878686;}.cls-83{fill:#868585;}.cls-84{fill:#858484;}.cls-85{fill:#848383;}.cls-86{fill:#838282;}.cls-87{fill:#828181;}.cls-88{fill:#818080;}.cls-89{fill:#807f7f;}.cls-90{fill:#7f7e7e;}.cls-91{fill:#7e7d7d;}.cls-92{fill:#7d7c7c;}.cls-93{fill:#7c7b7b;}.cls-94{fill:#7b7a7a;}.cls-95{fill:#7a7979;}.cls-96{fill:#797878;}.cls-97{fill:#787878;}.cls-98{fill:#787777;}.cls-99{fill:#777676;}.cls-100{fill:#767575;}.cls-101{fill:#757474;}.cls-102{fill:#747373;}.cls-103{fill:#737272;}.cls-104{fill:#727171;}.cls-105{fill:#717070;}.cls-106{fill:#706f6f;}.cls-107{fill:#6d6c6c;}.cls-108{fill:#6b6a6a;}.cls-109{fill:#686767;}.cls-110{fill:#666565;}.cls-111{fill:#636262;}.cls-112{fill:#616060;}.cls-113{fill:#5e5e5e;}.cls-114{fill:#5c5b5b;}.cls-115{fill:#5a5959;}.cls-116{fill:#575757;}.cls-117{fill:#555454;}.cls-118{fill:#535252;}.cls-119{fill:#515050;}.cls-120{fill:#4f4e4e;}.cls-121{fill:#4d4c4c;}.cls-122{fill:#4b4a4a;}.cls-123{fill:#484848;}.cls-124{fill:#464646;}.cls-125{fill:#454444;}.cls-126{fill:#434242;}.cls-127{fill:#414040;}.cls-128{fill:#3f3e3e;}.cls-129{fill:#3d3c3c;}.cls-130{fill:#3b3b3b;}.cls-131{fill:#393939;}.cls-132{fill:#383737;}.cls-133{fill:#363636;}.cls-134{fill:#343434;}.cls-135{fill:#333232;}.cls-136{fill:#313131;}.cls-137{fill:#302f2f;}.cls-138{fill:#2e2e2e;}.cls-139{fill:#2c2c2c;}.cls-140{fill:#2b2b2b;}.cls-141{fill:#2a2929;}.cls-142{fill:#282828;}.cls-143{fill:#272626;}.cls-144{fill:#252525;}.cls-145{fill:#242424;}.cls-146{fill:#232222;}.cls-147{fill:#222121;}.cls-148{fill:#202020;}.cls-149{fill:#1f1f1f;}.cls-150{fill:#1e1e1e;}.cls-151{fill:#1d1c1c;}.cls-152{fill:#1c1b1b;}.cls-153{fill:#1a1a1a;}.cls-154{fill:#191919;}.cls-155{fill:#181818;}.cls-156{fill:#171717;}.cls-157{fill:#161616;}.cls-158{fill:#151515;}.cls-159{fill:#141414;}.cls-160{fill:#141313;}.cls-161{fill:#131313;}.cls-162{fill:#121212;}.cls-163{fill:#111;}.cls-164{fill:#101010;}.cls-165{fill:#0f0f0f;}.cls-166{fill:#0f0e0e;}.cls-167{fill:#0e0e0e;}.cls-168{fill:#0d0d0d;}.cls-169{fill:#0c0c0c;}.cls-170{fill:#0b0b0b;}.cls-171{fill:#0b0a0a;}.cls-172{fill:#0a0a0a;}.cls-173{fill:#090909;}.cls-174{fill:#080808;}.cls-175{fill:#070707;}.cls-176{fill:#060606;}.cls-177{fill:#050505;}.cls-178{fill:#040404;}.cls-179{fill:#030303;}.cls-180{fill:#030202;}.cls-181{fill:#020202;}.cls-182{fill:#010101;}.cls-183{fill:#1d1d1b;}</style><clipPath id="clip-path" transform="translate(-9.3 -1)"><path class="cls-1" d="M17.12,41.16a15.33,15.33,0,0,0,1-1.91,20.47,20.47,0,0,0,.82-2,18.64,18.64,0,0,0,.6-2.06A18.7,18.7,0,0,0,20,33.1,18.66,18.66,0,0,0,20.08,31a16.18,16.18,0,0,0-.14-2.09,15.46,15.46,0,0,0-.39-2,10.81,10.81,0,0,1-.32-2.33,12.17,12.17,0,0,1,.16-2.34c.06-.38.14-.76.23-1.13s.2-.75.32-1.11.25-.73.39-1.08.29-.71.45-1.05.32-.69.5-1,.35-.66.54-1a31.65,31.65,0,0,1,2.55-3.71c.47-.59.95-1.16,1.45-1.71.25-.28.51-.55.77-.82s.27-.27.4-.4l.2-.2.11-.1.11-.11.69-.65.68.65.11.09.09.1.19.18.36.37c.24.24.48.49.71.74.46.51.9,1,1.34,1.56A35.78,35.78,0,0,1,34,15.09a32.23,32.23,0,0,1,2,3.59l.1.24a2.4,2.4,0,0,1,.11.23l.21.51a9.32,9.32,0,0,1,.33,1,10.29,10.29,0,0,1,.34,2.12l0,.5c0,.16,0,.32,0,.48,0,.33,0,.66.09,1,.06.66.14,1.31.23,2,.17,1.31.38,2.62.61,3.92s.51,2.6.85,3.88a17.14,17.14,0,0,0,.6,1.88,5.17,5.17,0,0,0,.44.88,1.86,1.86,0,0,0,.3.37.61.61,0,0,0,.44.19.65.65,0,0,1-.48-.13,1.75,1.75,0,0,1-.37-.35,5.48,5.48,0,0,1-.57-.85c-.17-.29-.31-.6-.45-.9s-.27-.62-.39-.94c-.24-.62-.46-1.26-.67-1.9s-.39-1.28-.57-1.93c-.35-1.3-.66-2.6-.93-3.92-.14-.66-.26-1.32-.38-2,0-.34-.11-.67-.15-1,0-.17-.05-.34-.07-.51l0-.25v-.13l0-.12a9.35,9.35,0,0,0-.4-1.8c-.1-.29-.21-.57-.33-.85s-.13-.28-.2-.42l-.11-.21-.11-.21c-.31-.57-.62-1.13-1-1.69s-.7-1.09-1.07-1.62A37.2,37.2,0,0,0,30.06,13c-.42-.49-.85-1-1.3-1.45-.22-.24-.44-.47-.67-.7l-.34-.34-.17-.16-.16-.16h1.37l-.18.17-.19.18-.36.38q-.37.38-.72.78c-.48.52-.94,1.06-1.38,1.61a31.12,31.12,0,0,0-2.44,3.44,20.54,20.54,0,0,0-1.83,3.74,12.55,12.55,0,0,0-.81,4,9.59,9.59,0,0,0,.16,2,17.25,17.25,0,0,1,.29,2.26,19.09,19.09,0,0,1,0,2.27A16.65,16.65,0,0,1,21,33.27a16.49,16.49,0,0,1-.6,2.16,16.69,16.69,0,0,1-.85,2c-.16.33-.33.66-.51,1s-.38.64-.58.95-.41.61-.63.9A8,8,0,0,1,17.12,41.16Z"/></clipPath></defs><path d="M39.25,14.6a23,23,0,0,0-2.82-5.82,13.39,13.39,0,0,0-5.52-4.85,12.59,12.59,0,0,0-7.56-.6,16.74,16.74,0,0,0-11,8.17c-2.74,4.94-3,11.65-3.06,17.19,0,3.7.34,7.49,2,10.81A15.38,15.38,0,0,0,17,45.8a23.43,23.43,0,0,0,11.63,3c4,.1,7.38.05,11.71,0,0-7.29.24-14.22,0-21.47C40.18,22.9,40.6,18.72,39.25,14.6Z" transform="translate(-9.3 -1)"/><path class="cls-2" d="M18.26,35.06S30,43.89,30,48.63h0v-8" transform="translate(-9.3 -1)"/><path class="cls-2" d="M16.55,25.92a25.13,25.13,0,0,1,.92-3.83,35,35,0,0,1,3.27-7.25l.12-.19a13.37,13.37,0,0,1,2.65-3.32c3.25-2.79,8.1-1.66,11.13.93a10.81,10.81,0,0,1,3.62,6.57c.27,1.77.08,3.6.35,5.37.18,1.22.58,2.4.72,3.63a10.79,10.79,0,0,1-1.18,6.05,18.42,18.42,0,0,1-3.8,4.94A7.93,7.93,0,0,1,33,39.91a5.81,5.81,0,0,1-2.43.68c-2.81.24-5.57-.83-8.09-2.12a13.8,13.8,0,0,1-2.65-1.68,10.32,10.32,0,0,1-3.39-6.92,15.83,15.83,0,0,1,.12-3.95" transform="translate(-9.3 -1)"/><path d="M29.77,40.84a16.6,16.6,0,0,1-7.4-2.18A14.09,14.09,0,0,1,19.68,37a10.63,10.63,0,0,1-3.47-7.07,16,16,0,0,1,.13-4h0A24.58,24.58,0,0,1,17.26,22a34.73,34.73,0,0,1,3.29-7.3l.12-.2a14.4,14.4,0,0,1,2.7-3.37c3.39-2.9,8.3-1.72,11.41.94a11.09,11.09,0,0,1,3.7,6.69,22.5,22.5,0,0,1,.17,2.7,21.79,21.79,0,0,0,.17,2.68c.09.55.22,1.1.34,1.64a18.91,18.91,0,0,1,.39,2A11,11,0,0,1,38.34,34a18.38,18.38,0,0,1-3.84,5,6.94,6.94,0,0,1-1.4,1.12,5.84,5.84,0,0,1-2.52.72ZM16.77,26h0a15.67,15.67,0,0,0-.13,3.9A10.17,10.17,0,0,0,20,36.63a13.39,13.39,0,0,0,2.61,1.64c2.16,1.11,5,2.35,8,2.11a5.61,5.61,0,0,0,2.34-.66,7.22,7.22,0,0,0,1.32-1.06A18,18,0,0,0,38,33.78a10.57,10.57,0,0,0,1.17-5.93,18,18,0,0,0-.38-1.94c-.13-.55-.26-1.11-.35-1.67a21.11,21.11,0,0,1-.17-2.74,21.27,21.27,0,0,0-.17-2.64,10.65,10.65,0,0,0-3.55-6.43c-2.9-2.48-7.68-3.65-10.84-.94A13.66,13.66,0,0,0,21,14.76l-.11.19a34.11,34.11,0,0,0-3.25,7.21A23.76,23.76,0,0,0,16.77,26Z" transform="translate(-9.3 -1)"/><g class="cls-3"><rect class="cls-4" x="7.82" y="40.09" width="23.58" height="0.08"/><rect class="cls-5" x="7.82" y="39.91" width="23.58" height="0.18"/><rect class="cls-6" x="7.82" y="39.73" width="23.58" height="0.18"/><rect class="cls-7" x="7.82" y="39.55" width="23.58" height="0.18"/><rect class="cls-8" x="7.82" y="39.37" width="23.58" height="0.18"/><rect class="cls-9" x="7.82" y="39.19" width="23.58" height="0.18"/><rect class="cls-10" x="7.82" y="39.02" width="23.58" height="0.18"/><rect class="cls-11" x="7.82" y="38.84" width="23.58" height="0.18"/><rect class="cls-12" x="7.82" y="38.66" width="23.58" height="0.18"/><rect class="cls-13" x="7.82" y="38.48" width="23.58" height="0.18"/><rect class="cls-14" x="7.82" y="38.3" width="23.58" height="0.18"/><rect class="cls-15" x="7.82" y="38.12" width="23.58" height="0.18"/><rect class="cls-16" x="7.82" y="37.94" width="23.58" height="0.18"/><rect class="cls-17" x="7.82" y="37.77" width="23.58" height="0.18"/><rect class="cls-18" x="7.82" y="37.59" width="23.58" height="0.18"/><rect class="cls-19" x="7.82" y="37.41" width="23.58" height="0.18"/><rect class="cls-20" x="7.82" y="37.23" width="23.58" height="0.18"/><rect class="cls-21" x="7.82" y="37.05" width="23.58" height="0.18"/><rect class="cls-22" x="7.82" y="36.87" width="23.58" height="0.18"/><rect class="cls-23" x="7.82" y="36.69" width="23.58" height="0.18"/><rect class="cls-24" x="7.82" y="36.52" width="23.58" height="0.18"/><rect class="cls-25" x="7.82" y="36.34" width="23.58" height="0.18"/><rect class="cls-26" x="7.82" y="36.16" width="23.58" height="0.18"/><rect class="cls-27" x="7.82" y="35.98" width="23.58" height="0.18"/><rect class="cls-28" x="7.82" y="35.8" width="23.58" height="0.18"/><rect class="cls-29" x="7.82" y="35.62" width="23.58" height="0.18"/><rect class="cls-30" x="7.82" y="35.44" width="23.58" height="0.18"/><rect class="cls-31" x="7.82" y="35.27" width="23.58" height="0.18"/><rect class="cls-32" x="7.82" y="35.09" width="23.58" height="0.18"/><rect class="cls-33" x="7.82" y="34.91" width="23.58" height="0.18"/><rect class="cls-34" x="7.82" y="34.73" width="23.58" height="0.18"/><rect class="cls-35" x="7.82" y="34.55" width="23.58" height="0.18"/><rect class="cls-36" x="7.82" y="34.37" width="23.58" height="0.18"/><rect class="cls-37" x="7.82" y="34.19" width="23.58" height="0.18"/><rect class="cls-38" x="7.82" y="34.01" width="23.58" height="0.18"/><rect class="cls-39" x="7.82" y="33.84" width="23.58" height="0.18"/><rect class="cls-40" x="7.82" y="33.66" width="23.58" height="0.18"/><rect class="cls-41" x="7.82" y="33.48" width="23.58" height="0.18"/><rect class="cls-42" x="7.82" y="33.3" width="23.58" height="0.18"/><rect class="cls-43" x="7.82" y="33.12" width="23.58" height="0.18"/><rect class="cls-44" x="7.82" y="32.94" width="23.58" height="0.18"/><rect class="cls-45" x="7.82" y="32.76" width="23.58" height="0.18"/><rect class="cls-46" x="7.82" y="32.59" width="23.58" height="0.18"/><rect class="cls-47" x="7.82" y="32.41" width="23.58" height="0.18"/><rect class="cls-48" x="7.82" y="32.23" width="23.58" height="0.18"/><rect class="cls-49" x="7.82" y="32.05" width="23.58" height="0.18"/><rect class="cls-50" x="7.82" y="31.87" width="23.58" height="0.18"/><rect class="cls-51" x="7.82" y="31.69" width="23.58" height="0.18"/><rect class="cls-52" x="7.82" y="31.51" width="23.58" height="0.18"/><rect class="cls-53" x="7.82" y="31.34" width="23.58" height="0.18"/><rect class="cls-54" x="7.82" y="31.16" width="23.58" height="0.18"/><rect class="cls-55" x="7.82" y="30.98" width="23.58" height="0.18"/><rect class="cls-56" x="7.82" y="30.8" width="23.58" height="0.18"/><rect class="cls-57" x="7.82" y="30.62" width="23.58" height="0.18"/><rect class="cls-58" x="7.82" y="30.44" width="23.58" height="0.18"/><rect class="cls-59" x="7.82" y="30.26" width="23.58" height="0.18"/><rect class="cls-60" x="7.82" y="30.09" width="23.58" height="0.18"/><rect class="cls-61" x="7.82" y="29.91" width="23.58" height="0.18"/><rect class="cls-62" x="7.82" y="29.73" width="23.58" height="0.18"/><rect class="cls-63" x="7.82" y="29.55" width="23.58" height="0.18"/><rect class="cls-64" x="7.82" y="29.37" width="23.58" height="0.18"/><rect class="cls-65" x="7.82" y="29.19" width="23.58" height="0.18"/><rect class="cls-66" x="7.82" y="29.01" width="23.58" height="0.18"/><rect class="cls-67" x="7.82" y="28.84" width="23.58" height="0.18"/><rect class="cls-68" x="7.82" y="28.66" width="23.58" height="0.18"/><rect class="cls-69" x="7.82" y="28.48" width="23.58" height="0.18"/><rect class="cls-70" x="7.82" y="28.3" width="23.58" height="0.18"/><rect class="cls-71" x="7.82" y="28.12" width="23.58" height="0.18"/><rect class="cls-72" x="7.82" y="27.94" width="23.58" height="0.18"/><rect class="cls-73" x="7.82" y="27.76" width="23.58" height="0.18"/><rect class="cls-74" x="7.82" y="27.59" width="23.58" height="0.18"/><rect class="cls-75" x="7.82" y="27.41" width="23.58" height="0.18"/><rect class="cls-76" x="7.82" y="27.23" width="23.58" height="0.18"/><rect class="cls-77" x="7.82" y="27.05" width="23.58" height="0.18"/><rect class="cls-78" x="7.82" y="26.87" width="23.58" height="0.18"/><rect class="cls-79" x="7.82" y="26.69" width="23.58" height="0.18"/><rect class="cls-80" x="7.82" y="26.51" width="23.58" height="0.18"/><rect class="cls-81" x="7.82" y="26.34" width="23.58" height="0.18"/><rect class="cls-82" x="7.82" y="26.16" width="23.58" height="0.18"/><rect class="cls-83" x="7.82" y="25.98" width="23.58" height="0.18"/><rect class="cls-84" x="7.82" y="25.8" width="23.58" height="0.18"/><rect class="cls-85" x="7.82" y="25.62" width="23.58" height="0.18"/><rect class="cls-86" x="7.82" y="25.44" width="23.58" height="0.18"/><rect class="cls-87" x="7.82" y="25.26" width="23.58" height="0.18"/><rect class="cls-88" x="7.82" y="25.08" width="23.58" height="0.18"/><rect class="cls-89" x="7.82" y="24.91" width="23.58" height="0.18"/><rect class="cls-90" x="7.82" y="24.73" width="23.58" height="0.18"/><rect class="cls-91" x="7.82" y="24.55" width="23.58" height="0.18"/><rect class="cls-92" x="7.82" y="24.37" width="23.58" height="0.18"/><rect class="cls-93" x="7.82" y="24.19" width="23.58" height="0.18"/><rect class="cls-94" x="7.82" y="24.01" width="23.58" height="0.18"/><rect class="cls-95" x="7.82" y="23.83" width="23.58" height="0.18"/><rect class="cls-96" x="7.82" y="23.66" width="23.58" height="0.18"/><rect class="cls-97" x="7.82" y="23.48" width="23.58" height="0.18"/><rect class="cls-98" x="7.82" y="23.3" width="23.58" height="0.18"/><rect class="cls-99" x="7.82" y="23.12" width="23.58" height="0.18"/><rect class="cls-100" x="7.82" y="22.94" width="23.58" height="0.18"/><rect class="cls-101" x="7.82" y="22.76" width="23.58" height="0.18"/><rect class="cls-102" x="7.82" y="22.58" width="23.58" height="0.18"/><rect class="cls-103" x="7.82" y="22.41" width="23.58" height="0.18"/><rect class="cls-104" x="7.82" y="22.23" width="23.58" height="0.18"/><rect class="cls-104" x="7.82" y="22.05" width="23.58" height="0.18"/><rect class="cls-105" x="7.82" y="21.87" width="23.58" height="0.18"/><rect class="cls-106" x="7.82" y="21.69" width="23.58" height="0.18"/><rect class="cls-106" x="7.82" y="21.56" width="23.58" height="0.13"/><rect class="cls-107" x="7.82" y="21.43" width="23.58" height="0.13"/><rect class="cls-108" x="7.82" y="21.3" width="23.58" height="0.13"/><rect class="cls-109" x="7.82" y="21.17" width="23.58" height="0.13"/><rect class="cls-110" x="7.82" y="21.04" width="23.58" height="0.13"/><rect class="cls-111" x="7.82" y="20.91" width="23.58" height="0.13"/><rect class="cls-112" x="7.82" y="20.78" width="23.58" height="0.13"/><rect class="cls-113" x="7.82" y="20.65" width="23.58" height="0.13"/><rect class="cls-114" x="7.82" y="20.52" width="23.58" height="0.13"/><rect class="cls-115" x="7.82" y="20.39" width="23.58" height="0.13"/><rect class="cls-116" x="7.82" y="20.26" width="23.58" height="0.13"/><rect class="cls-117" x="7.82" y="20.13" width="23.58" height="0.13"/><rect class="cls-118" x="7.82" y="20" width="23.58" height="0.13"/><rect class="cls-119" x="7.82" y="19.87" width="23.58" height="0.13"/><rect class="cls-120" x="7.82" y="19.74" width="23.58" height="0.13"/><rect class="cls-121" x="7.82" y="19.61" width="23.58" height="0.13"/><rect class="cls-122" x="7.82" y="19.48" width="23.58" height="0.13"/><rect class="cls-123" x="7.82" y="19.35" width="23.58" height="0.13"/><rect class="cls-124" x="7.82" y="19.22" width="23.58" height="0.13"/><rect class="cls-125" x="7.82" y="19.09" width="23.58" height="0.13"/><rect class="cls-126" x="7.82" y="18.96" width="23.58" height="0.13"/><rect class="cls-127" x="7.82" y="18.83" width="23.58" height="0.13"/><rect class="cls-128" x="7.82" y="18.7" width="23.58" height="0.13"/><rect class="cls-129" x="7.82" y="18.56" width="23.58" height="0.13"/><rect class="cls-130" x="7.82" y="18.43" width="23.58" height="0.13"/><rect class="cls-131" x="7.82" y="18.3" width="23.58" height="0.13"/><rect class="cls-132" x="7.82" y="18.17" width="23.58" height="0.13"/><rect class="cls-133" x="7.82" y="18.04" width="23.58" height="0.13"/><rect class="cls-134" x="7.82" y="17.91" width="23.58" height="0.13"/><rect class="cls-135" x="7.82" y="17.78" width="23.58" height="0.13"/><rect class="cls-136" x="7.82" y="17.65" width="23.58" height="0.13"/><rect class="cls-137" x="7.82" y="17.52" width="23.58" height="0.13"/><rect class="cls-138" x="7.82" y="17.39" width="23.58" height="0.13"/><rect class="cls-139" x="7.82" y="17.26" width="23.58" height="0.13"/><rect class="cls-140" x="7.82" y="17.13" width="23.58" height="0.13"/><rect class="cls-141" x="7.82" y="17" width="23.58" height="0.13"/><rect class="cls-142" x="7.82" y="16.87" width="23.58" height="0.13"/><rect class="cls-143" x="7.82" y="16.74" width="23.58" height="0.13"/><rect class="cls-144" x="7.82" y="16.61" width="23.58" height="0.13"/><rect class="cls-145" x="7.82" y="16.48" width="23.58" height="0.13"/><rect class="cls-146" x="7.82" y="16.35" width="23.58" height="0.13"/><rect class="cls-147" x="7.82" y="16.22" width="23.58" height="0.13"/><rect class="cls-148" x="7.82" y="16.09" width="23.58" height="0.13"/><rect class="cls-149" x="7.82" y="15.96" width="23.58" height="0.13"/><rect class="cls-150" x="7.82" y="15.83" width="23.58" height="0.13"/><rect class="cls-151" x="7.82" y="15.7" width="23.58" height="0.13"/><rect class="cls-152" x="7.82" y="15.57" width="23.58" height="0.13"/><rect class="cls-153" x="7.82" y="15.44" width="23.58" height="0.13"/><rect class="cls-154" x="7.82" y="15.31" width="23.58" height="0.13"/><rect class="cls-155" x="7.82" y="15.18" width="23.58" height="0.13"/><rect class="cls-156" x="7.82" y="15.05" width="23.58" height="0.13"/><rect class="cls-157" x="7.82" y="14.92" width="23.58" height="0.13"/><rect class="cls-158" x="7.82" y="14.79" width="23.58" height="0.13"/><rect class="cls-159" x="7.82" y="14.66" width="23.58" height="0.13"/><rect class="cls-160" x="7.82" y="14.53" width="23.58" height="0.13"/><rect class="cls-161" x="7.82" y="14.4" width="23.58" height="0.13"/><rect class="cls-162" x="7.82" y="14.27" width="23.58" height="0.13"/><rect class="cls-163" x="7.82" y="14.14" width="23.58" height="0.13"/><rect class="cls-164" x="7.82" y="14.01" width="23.58" height="0.13"/><rect class="cls-165" x="7.82" y="13.87" width="23.58" height="0.13"/><rect class="cls-166" x="7.82" y="13.74" width="23.58" height="0.13"/><rect class="cls-167" x="7.82" y="13.61" width="23.58" height="0.13"/><rect class="cls-168" x="7.82" y="13.48" width="23.58" height="0.13"/><rect class="cls-169" x="7.82" y="13.35" width="23.58" height="0.13"/><rect class="cls-169" x="7.82" y="13.22" width="23.58" height="0.13"/><rect class="cls-170" x="7.82" y="13.09" width="23.58" height="0.13"/><rect class="cls-171" x="7.82" y="12.96" width="23.58" height="0.13"/><rect class="cls-172" x="7.82" y="12.83" width="23.58" height="0.13"/><rect class="cls-173" x="7.82" y="12.7" width="23.58" height="0.13"/><rect class="cls-173" x="7.82" y="12.57" width="23.58" height="0.13"/><rect class="cls-174" x="7.82" y="12.44" width="23.58" height="0.13"/><rect class="cls-174" x="7.82" y="12.31" width="23.58" height="0.13"/><rect class="cls-175" x="7.82" y="12.18" width="23.58" height="0.13"/><rect class="cls-175" x="7.82" y="12.05" width="23.58" height="0.13"/><rect class="cls-176" x="7.82" y="11.92" width="23.58" height="0.13"/><rect class="cls-176" x="7.82" y="11.79" width="23.58" height="0.13"/><rect class="cls-177" x="7.82" y="11.66" width="23.58" height="0.13"/><rect class="cls-177" x="7.82" y="11.53" width="23.58" height="0.13"/><rect class="cls-177" x="7.82" y="11.4" width="23.58" height="0.13"/><rect class="cls-178" x="7.82" y="11.27" width="23.58" height="0.13"/><rect class="cls-178" x="7.82" y="11.14" width="23.58" height="0.13"/><rect class="cls-178" x="7.82" y="11.01" width="23.58" height="0.13"/><rect class="cls-179" x="7.82" y="10.88" width="23.58" height="0.13"/><rect class="cls-179" x="7.82" y="10.75" width="23.58" height="0.13"/><rect class="cls-179" x="7.82" y="10.62" width="23.58" height="0.13"/><rect class="cls-180" x="7.82" y="10.49" width="23.58" height="0.13"/><rect class="cls-181" x="7.82" y="10.36" width="23.58" height="0.13"/><rect class="cls-181" x="7.82" y="10.23" width="23.58" height="0.13"/><rect class="cls-181" x="7.82" y="10.1" width="23.58" height="0.13"/><rect class="cls-181" x="7.82" y="9.97" width="23.58" height="0.13"/><rect class="cls-182" x="7.82" y="9.84" width="23.58" height="0.13"/><rect class="cls-182" x="7.82" y="9.71" width="23.58" height="0.13"/><rect class="cls-182" x="7.82" y="9.58" width="23.58" height="0.13"/><rect class="cls-182" x="7.82" y="9.45" width="23.58" height="0.13"/><rect class="cls-182" x="7.82" y="9.31" width="23.58" height="0.13"/><rect class="cls-182" x="7.82" y="9.18" width="23.58" height="0.13"/><rect class="cls-182" x="7.82" y="9.05" width="23.58" height="0.13"/><rect x="7.82" y="8.92" width="23.58" height="0.13"/><rect x="7.82" y="8.79" width="23.58" height="0.13"/><rect x="7.82" y="8.66" width="23.58" height="0.13"/><rect x="7.82" y="8.53" width="23.58" height="0.13"/><rect x="7.82" y="8.4" width="23.58" height="0.13"/><rect x="7.82" y="8.27" width="23.58" height="0.13"/><rect x="7.82" y="8.14" width="23.58" height="0.13"/><rect x="7.82" y="8.01" width="23.58" height="0.13"/><rect x="7.82" y="7.88" width="23.58" height="0.13"/><rect x="7.82" y="7.75" width="23.58" height="0.13"/><rect x="7.82" y="7.62" width="23.58" height="0.13"/><rect x="7.82" y="7.49" width="23.58" height="0.13"/><rect x="7.82" y="7.36" width="23.58" height="0.13"/><rect x="7.82" y="7.23" width="23.58" height="0.13"/><rect x="7.82" y="7.1" width="23.58" height="0.13"/><rect x="7.82" y="7.09" width="23.58" height="0.01"/></g><path class="cls-2" d="M31.8,7.07h0c-.21.11-.44.24-.49.47a.64.64,0,0,0,0,.33A4.72,4.72,0,0,0,32.7,9.82a3.18,3.18,0,0,0,1.54.85,1,1,0,0,0,.55,0,1.13,1.13,0,0,0,.31-.21,6.48,6.48,0,0,0,2-3.83A6.7,6.7,0,0,0,37,3.78a5.11,5.11,0,0,0-1.41-2.43c-.1-.09-.35-.3-.5-.22s-.08.49-.06.63a4.7,4.7,0,0,1-.8,3.16A6.62,6.62,0,0,1,31.8,7.07Z" transform="translate(-9.3 -1)"/><path class="cls-183" d="M34.49,10.8a1.32,1.32,0,0,1-.27,0,3.3,3.3,0,0,1-1.6-.88,4.86,4.86,0,0,1-1.39-2,.76.76,0,0,1-.05-.39c.05-.29.35-.45.54-.55h0a6.42,6.42,0,0,0,2.42-2.11A4.6,4.6,0,0,0,35,1.77V1.71c0-.21-.08-.57.13-.68s.36,0,.62.24a5.07,5.07,0,0,1,1.44,2.48,6.71,6.71,0,0,1,.1,2.87,6.59,6.59,0,0,1-2.06,3.89,1.38,1.38,0,0,1-.33.23A1,1,0,0,1,34.49,10.8ZM31.85,7.16l0,0c-.21.1-.4.21-.43.39a.75.75,0,0,0,0,.28,4.63,4.63,0,0,0,1.34,1.89,3,3,0,0,0,1.49.82.87.87,0,0,0,.49,0,1.07,1.07,0,0,0,.28-.19,6.37,6.37,0,0,0,2-3.77,6.46,6.46,0,0,0-.09-2.78,4.84,4.84,0,0,0-1.38-2.37c-.27-.25-.36-.21-.37-.21s-.06.11,0,.46v.06A4.87,4.87,0,0,1,34.35,5a6.6,6.6,0,0,1-2.5,2.18Z" transform="translate(-9.3 -1)"/><path class="cls-2" d="M20.87,9.32h0c.21.1.45.23.49.46a.66.66,0,0,1-.05.34A4.79,4.79,0,0,1,20,12.07a3.25,3.25,0,0,1-1.55.85,1,1,0,0,1-.55,0,1.25,1.25,0,0,1-.3-.21,6.48,6.48,0,0,1-2-3.83A6.7,6.7,0,0,1,15.64,6,5,5,0,0,1,17.05,3.6c.1-.09.34-.3.49-.23s.08.49.06.64a4.81,4.81,0,0,0,.8,3.16A6.58,6.58,0,0,0,20.87,9.32Z" transform="translate(-9.3 -1)"/><path class="cls-183" d="M18.18,13.05a1,1,0,0,1-.35-.06,1.38,1.38,0,0,1-.33-.23,6.59,6.59,0,0,1-2.06-3.9A6.83,6.83,0,0,1,15.53,6,5.12,5.12,0,0,1,17,3.52c.09-.09.39-.36.61-.24s.16.46.13.68V4a4.73,4.73,0,0,0,.78,3.09,6.45,6.45,0,0,0,2.43,2.11h0c.2.1.5.25.55.54a.9.9,0,0,1,0,.4,4.8,4.8,0,0,1-1.4,2,3.34,3.34,0,0,1-1.6.88Zm-.71-9.58s-.14,0-.35.21a5,5,0,0,0-1.38,2.37,6.78,6.78,0,0,0-.09,2.78,6.41,6.41,0,0,0,2,3.77,1.31,1.31,0,0,0,.27.19.87.87,0,0,0,.49,0A3.09,3.09,0,0,0,19.9,12a4.69,4.69,0,0,0,1.33-1.89.63.63,0,0,0,.05-.29c0-.17-.23-.28-.44-.39h0a6.63,6.63,0,0,1-2.51-2.18A4.81,4.81,0,0,1,17.5,4V3.92c0-.34,0-.43,0-.45Z" transform="translate(-9.3 -1)"/><path class="cls-2" d="M17.72,25.56c-1-.8-2.9-2-3.9-.7-1.31,1.77-.68,5.15,1.06,6.44.12.08,1.15,1.22,2.88-.14" transform="translate(-9.3 -1)"/></svg>