<svg id="Capa_1" data-name="Capa 1" xmlns="http://www.w3.org/2000/svg" viewBox="0 0 34.56 34.56"><defs><style>.cls-1{isolation:isolate;}.cls-2{fill:none;stroke:#000;stroke-miterlimit:10;}</style></defs><g class="cls-1"><circle class="cls-2" cx="17.28" cy="17.28" r="16.72"/><path class="cls-2" d="M18,34.78A16.7,16.7,0,0,1,6.14,29.86,16.7,16.7,0,0,1,1.22,18,16.7,16.7,0,0,1,6.14,6.14,16.7,16.7,0,0,1,18,1.22,16.7,16.7,0,0,1,29.86,6.14,16.7,16.7,0,0,1,34.78,18a16.7,16.7,0,0,1-4.92,11.86A16.7,16.7,0,0,1,18,34.78ZM18,1.33A16.67,16.67,0,1,0,34.67,18,16.69,16.69,0,0,0,18,1.33Z" transform="translate(-0.72 -0.72)"/></g><path d="M17.56,16.89a.31.31,0,0,1-.2.14c-.27,0-.66-.25-.78-.35h0a1.6,1.6,0,0,1-.35-.91c0-.35,0-.54,0-.87C16.22,14.92,17.9,16.34,17.56,16.89Z" transform="translate(-0.72 -0.72)"/><path d="M23.87,10.79a24.28,24.28,0,0,0-2.13,1.92c-.66.67-1.29,1.38-1.9,2.11,0-1.64-1.79-3.59-1.82-3.62.62-.79,1.25-1.56,1.91-2.3A27.9,27.9,0,0,1,23,5.83a2.6,2.6,0,0,1,.59,1A8.5,8.5,0,0,1,23.87,10.79Z" transform="translate(-0.72 -0.72)"/><path d="M15.88,29.93c0,.23-.09.3-.25.2h0a3.06,3.06,0,0,1-.65-.66L14.6,29l0,0,0,0-.33-.49h0l-.15-.26a47.49,47.49,0,0,1-5.43-13.4q-.16-.75-.3-1.5L8.2,12.6c0-.21-.07-.43-.1-.64S8,11.52,8,11.31c-.12-.87-.21-1.75-.26-2.63.7-.5,1.41-1,2.15-1.39h0l.27-.15.05,0L10.48,7l.08,0,.21-.11.13-.06.18-.09.15-.08.15-.07.2-.09.1,0,.25-.11.06,0,.3-.13h0l.59-.24h0l.1,0h0A4.28,4.28,0,0,0,12.4,7a8.91,8.91,0,0,0-.31,3.74A79.47,79.47,0,0,0,15.3,27.65c.13.45.28.89.42,1.34A2.77,2.77,0,0,1,15.88,29.93Z" transform="translate(-0.72 -0.72)"/><path d="M28.25,8.68c0,.66-.1,1.32-.17,2l-.09.65L27.9,12c0,.21-.07.43-.1.64l-.12.65q-.13.75-.3,1.5A47.85,47.85,0,0,1,21.8,28.41l0,0c-.1.16-.21.32-.32.47l0,0,0,0-.36.47a3.06,3.06,0,0,1-.65.66h0c-.15.1-.23,0-.25-.2a2.77,2.77,0,0,1,.16-.94,79.74,79.74,0,0,0,3.63-18.23h0a8.41,8.41,0,0,0-.28-3.92,2.16,2.16,0,0,0-.59-1l.07,0h0l.59.24h0l.3.13.06,0,.25.11.1,0,.2.09.15.07.15.08.18.09.13.06.21.11.08,0,.25.13.05,0,.27.15h0C26.84,7.72,27.55,8.18,28.25,8.68Z" transform="translate(-0.72 -0.72)"/><path d="M19.81,14.86c0,.36,0,.54,0,.91a1.71,1.71,0,0,1-.56,1.15A1.81,1.81,0,0,1,18,17.4h0a1.81,1.81,0,0,1-1.19-.48l-.12-.12a1.3,1.3,0,0,0,.63.26h.06a.33.33,0,0,0,.23-.15c.35-.58-1.33-2-1.4-2.05-.62-.75-1.26-1.47-1.93-2.15a25.94,25.94,0,0,0-2.14-1.92h0c-.36-3.37.85-5,.86-5A27.9,27.9,0,0,1,16.07,8.9c.67.75,1.31,1.53,1.93,2.32C18,11.24,19.81,13.22,19.81,14.86Z" transform="translate(-0.72 -0.72)"/></svg>