<svg id="Capa_1" data-name="Capa 1" xmlns="http://www.w3.org/2000/svg" viewBox="0 0 47.08 18.1"><path d="M48,16.54c-1.61-.25-3.21-.4-4.82-.49q-1.2-.08-2.4-.09H38.92l-.63,0a14.55,14.55,0,0,0-2.52.35,9.72,9.72,0,0,0-1.27.38,6.17,6.17,0,0,0-1.23.62l-.36.27a5.37,5.37,0,0,0-.45-.35,4.11,4.11,0,0,0-.93-.49,3.05,3.05,0,0,0-.54-.14l-.28,0h-.29a2.28,2.28,0,0,0-.57.15,2.61,2.61,0,0,0-.52.28,4,4,0,0,0-.43.39,2.93,2.93,0,0,0-.36.43,6.07,6.07,0,0,0-.56.95,8.59,8.59,0,0,0-.41,1c-.12.33-.22.67-.32,1-.18.68-.33,1.36-.46,2s-.22,1.35-.32,2c0,.33-.1.67-.14,1s-.1.65-.16,1c-.13.68-.23,1.34-.36,2,0,.18-.09.36-.13.54-.21-.81-.42-1.62-.64-2.43Q24,23,22.89,19.08l-.11-.35-.26-.2a2.51,2.51,0,0,0-.4-.26,2.17,2.17,0,0,0-.53-.21,1.84,1.84,0,0,0-.71,0l-.36.09-.32.16a2.29,2.29,0,0,0-.46.39,2.88,2.88,0,0,0-.28.39,4.08,4.08,0,0,0-.35.74,8.13,8.13,0,0,0-.33,1.36,9.88,9.88,0,0,0-.15,1.32l0,.62,0,.6c0,.4-.06.8-.1,1.2l-.06.6c0,.2,0,.39-.07.59s0,.4-.09.59l0,.3-.05.29c0,.2-.08.39-.11.59s-.09.39-.13.58-.09.39-.15.58l-.07.29-.09.28c-.05.19-.12.38-.18.57s-.12.39-.19.57a6.69,6.69,0,0,1-.47,1.05,2.53,2.53,0,0,1-.67.83,1.07,1.07,0,0,1-.21.13l-.11.05-.12,0a1.2,1.2,0,0,1-.5,0,1.25,1.25,0,0,1-.26-.07,1.45,1.45,0,0,1-.26-.11,2.93,2.93,0,0,1-.48-.33l-.31-.28.69-.66-.16-.11c-1.71-1.28-2-6.72-2-6.78v-.09L6.78,21.69l.12-.11A.83.83,0,0,1,7,21.46c.47-.39.63-.54.6-.7h0c-.18-.77-1.15-.9-1.19-.91H6.36l-.06.06L1.51,24.45h0a.17.17,0,0,0,0,.2,2.15,2.15,0,0,0,.63.47,1.81,1.81,0,0,0,.75.33h0a.87.87,0,0,0,.43-.28L6.39,30.8h2.2a7.71,7.71,0,0,1,4.53,1.74l.11.09.49-.46a2.7,2.7,0,0,0,.25.34,2.23,2.23,0,0,0,.46.46,1.73,1.73,0,0,0,.28.19,1.65,1.65,0,0,0,1,.23l.18,0,.18,0a1.43,1.43,0,0,0,.34-.14,2.43,2.43,0,0,0,.58-.41,4.41,4.41,0,0,0,.46-.51,8.24,8.24,0,0,0,.69-1.12c.1-.19.19-.38.28-.57s.18-.38.26-.58l.13-.29.11-.3c.08-.19.16-.39.23-.59s.13-.41.2-.61l.18-.61c.12-.41.22-.82.31-1.23.05-.21.09-.41.13-.62l.12-.62.05-.31.05-.32a6.17,6.17,0,0,0,.09-.62l.09-.62.07-.61a10.07,10.07,0,0,1,.2-1.12,5.45,5.45,0,0,1,.31-1,.5.5,0,0,1,.05-.13c.6,2.37,1.22,4.74,1.87,7.09.36,1.31.72,2.61,1.09,3.91l.07.24,0,.06,0,.09s0,.08.05.13l.06.14,0,.08,0,.09,0,0,0,0,0,0,.08.1,0,0,0,0,.06.06.06.05.07,0,.17.09a.62.62,0,0,0,.19.07l.2,0h.18l.17,0h.08l.07,0,.06,0,.06,0,.1,0,.09,0,.08,0,.22-.17.17-.16c.09-.11.17-.2.24-.3a3.21,3.21,0,0,0,.19-.31l0,0s0,0,0,0l0-.07.07-.14a8.66,8.66,0,0,0,.61-2.2c.11-.71.17-1.39.25-2,0-.37.07-.71.09-1.06s.05-.68.07-1c0-.67.08-1.34.14-2s.13-1.32.23-2a11.43,11.43,0,0,1,.43-1.88,6,6,0,0,1,.35-.86,3.68,3.68,0,0,1,.24-.39,2.22,2.22,0,0,1,.28-.33l.07-.08.09-.06a.27.27,0,0,1,.08-.07l.09-.05a1.36,1.36,0,0,1,.39-.17,1.49,1.49,0,0,1,.43-.07,2.37,2.37,0,0,1,.46,0,4.63,4.63,0,0,1,.94.29l.47.23-.13.12a3.41,3.41,0,0,0-.5.57,3.19,3.19,0,0,0-.33.7,2.48,2.48,0,0,0-.11.75V20a1.1,1.1,0,0,1,0,.18,3.38,3.38,0,0,0,.08.34,3.16,3.16,0,0,0,.61,1.17,3.05,3.05,0,0,0,.43.45c-.07-.2-.12-.39-.17-.58s0-.2,0-.29,0-.2,0-.29a3.39,3.39,0,0,1,0-.55,1.94,1.94,0,0,1,.11-.49,1.57,1.57,0,0,1,.5-.73,2.84,2.84,0,0,1,.8-.46,8.83,8.83,0,0,1,2.07-.45c.74-.08,1.5-.11,2.26-.12h2.44a7.92,7.92,0,0,0-.76,1,8.74,8.74,0,0,0-.72,1.35,12,12,0,0,0-.5,1.42,25.83,25.83,0,0,0-.61,2.84c-.16.93-.31,1.82-.53,2.66,0,.11,0,.21-.08.32l-.09.3-.1.31c0,.09-.07.19-.1.29l-.12.29-.12.29-.14.28-.14.27a2.26,2.26,0,0,1-.16.26c0,.09-.1.18-.16.27l-.18.25a.6.6,0,0,1-.09.13l-.09.13a9.5,9.5,0,0,1-.84.95,4.28,4.28,0,0,1-2.05,1.2,2.36,2.36,0,0,1-.6.05h-.15l-.16,0L32,32.89c-.11,0-.21-.07-.32-.1l-.31-.14a5.67,5.67,0,0,1-.63-.36,3.75,3.75,0,0,0,.42.62,3.45,3.45,0,0,0,.26.28l.14.13.16.12a3.78,3.78,0,0,0,.33.22l.19.09.18.08a3.28,3.28,0,0,0,.82.2,4.06,4.06,0,0,0,1.66-.2,6.16,6.16,0,0,0,1.45-.73,8.5,8.5,0,0,0,1.22-1l.13-.14.14-.15.26-.3a3.92,3.92,0,0,0,.25-.32,3.88,3.88,0,0,0,.23-.33c.07-.11.15-.22.22-.34l.19-.35.1-.18.08-.18c.06-.12.12-.24.17-.36A10.68,10.68,0,0,0,39.84,28,18.49,18.49,0,0,0,40.31,25c.09-.95.14-1.88.24-2.78,0-.45.1-.89.18-1.33A11.82,11.82,0,0,1,41,19.6a11.1,11.1,0,0,1,.48-1.28l.09-.18,1.54-.06c1.47-.09,2.93-.22,4.4-.44v.06l.05.31.07.32c0,.21.08.42.13.64s.1.42.16.63c.06-.21.11-.42.16-.63s.09-.43.13-.64l.06-.32.06-.31c0-.22.07-.43.1-.64l.07-.42ZM2.86,25.11a4.15,4.15,0,0,1-1-.54l4.6-4.38a1,1,0,0,1,.82.59,4.83,4.83,0,0,1-.47.42l-.16.14-.2.19h0L3.14,24.82l0,0A.94.94,0,0,1,2.86,25.11Zm10.36,7.08a8,8,0,0,0-4.43-1.73H6.59l-3-5.55.09-.11.15-.16.79-.79c.22-.23.46-.47.7-.7l1.23-1.21L12,24.62c.05.75.41,5.35,2,6.8l-.17.16-3.49-3.26a.77.77,0,0,0,0-.59,1.57,1.57,0,0,0-.18-.31A1.12,1.12,0,0,0,9,27.07a.59.59,0,0,0-.4.62.89.89,0,0,0,.36.58,1.43,1.43,0,0,0,.86.36h.08a.89.89,0,0,0,.26-.07l3.29,3.07.12.25Zm8-12.16h0ZM25,30.84s0,0,0,0h0Z" transform="translate(-1.46 -15.95)"/></svg>