<svg id="Capa_1" data-name="Capa 1" xmlns="http://www.w3.org/2000/svg" viewBox="0 0 96.48 64.07"><defs><style>.cls-1{fill:#fefefe;}.cls-2{fill:#dcdcdc;}.cls-3{fill:#222;}.cls-4{fill:#c3c3c3;}.cls-5{fill:#6b6b6b;}.cls-6{fill:#7b7b7b;}.cls-7{fill:#c5c5c5;}.cls-8{fill:#cecece;}.cls-9{fill:#747474;}.cls-10{fill:#6c6c6c;}.cls-11{fill:#b5b5b5;}.cls-12{fill:#c4c4c4;}.cls-13{fill:#d0d0d0;}.cls-14{fill:#7e7e7e;}.cls-15{fill:#a4a4a4;}.cls-16{fill:#8f8f8f;}.cls-17{fill:#989898;}.cls-18{fill:#b7b7b7;}.cls-19{fill:#aeaeae;}.cls-20{fill:#bdbdbd;}.cls-21{fill:#cacaca;}.cls-22{fill:#e3e3e3;}.cls-23{fill:#e4e4e4;}.cls-24{fill:#b9b9b9;}.cls-25{fill:#d6d6d6;}.cls-26{fill:#b0b0b0;}.cls-27{fill:#fbfbfb;}.cls-28{fill:#d7d7d7;}.cls-29{fill:#b8b8b8;}.cls-30{fill:#c7c7c7;}.cls-31{fill:#b3b3b3;}.cls-32{fill:#a1a1a1;}.cls-33{fill:#dbdbdb;}.cls-34{fill:#b4b4b4;}.cls-35{fill:#d9d9d9;}.cls-36{fill:#dadada;}.cls-37{fill:silver;}.cls-38{fill:#cfcfcf;}.cls-39{fill:#b2b2b2;}.cls-40{fill:#a0a0a0;}.cls-41{fill:#939393;}.cls-42{fill:#929292;}.cls-43{fill:#a8a8a8;}.cls-44{fill:#9d9d9d;}.cls-45{fill:#bcbcbc;}.cls-46{fill:#c1c1c1;}.cls-47{fill:#a7a7a7;}</style></defs><path class="cls-1" d="M9.58,82.05c-2.35,0-4.7,0-7,0-.55,0-.68-.1-.68-.67,0-4.72,0-9.45,0-14.17q0-24.21,0-48.42c0-.71.18-.81.83-.81q47.4,0,94.8,0c.72,0,.86.18.85.87,0,5.29,0,10.58,0,15.86-.67-.16-.29-.81-.55-1.17a19.41,19.41,0,0,0-3.5-7A27.13,27.13,0,0,0,88,21.25a33.09,33.09,0,0,0-3.68-2.07,1.56,1.56,0,0,0-1.66,0c-1.21.71-2.44,1.4-3.66,2.1a5.5,5.5,0,0,1-1.32.68,1.92,1.92,0,0,1-1,0,47,47,0,0,0-9.32-2.49,2.39,2.39,0,0,0-1.62.3C57,25,48.06,30,39.21,35.17a38.54,38.54,0,0,1-3.93,2.18c-.39.11-.46.41-.43.75,0,2.66,0,5.32,0,8l0,.31c0,.48-.51.6-.77.9-.48.34-.56-.2-.81-.36a26.53,26.53,0,0,1-4.19-4.15.84.84,0,0,0-1.28-.23q-6.1,3.6-12.26,7.1c-4.2,2.4-8.35,4.91-12.6,7.23-.29.11-.6.19-.58.6,0,6.29,0,12.58,0,18.87a1.79,1.79,0,0,0,1.05,1.79c2,1.07,4,2.3,6,3.42a1.21,1.21,0,0,1,.24.21A.23.23,0,0,1,9.58,82.05Z" transform="translate(-1.85 -18)"/><path class="cls-1" d="M9.58,82.05V82c.28-.59.91-.72,1.4-1,3.12-1.85,6.26-3.65,9.42-5.44,4.09-2.35,8.17-4.73,12.26-7.09a1.83,1.83,0,0,1,2.24,0,32.87,32.87,0,0,0,3.38,2,46.91,46.91,0,0,0,12.29,4.26,63.73,63.73,0,0,0,14.31,1.39,51.26,51.26,0,0,0,6.43-.5,23.16,23.16,0,0,0,3.42-.53,20.07,20.07,0,0,0,2.77-.59c.34,0,.65-.17,1-.22.54-.14,1.08-.27,1.61-.46,1-.25,1.93-.69,2.91-1a34.83,34.83,0,0,0,3.75-1.67,20.83,20.83,0,0,0,3.53-2.08,27.07,27.07,0,0,0,3.78-3.24,14.72,14.72,0,0,0,3.87-7.42c0-.21.06-.46.39-.41,0,7.76,0,15.52,0,23.28,0,.64-.12.77-.77.77Q53.58,82,9.58,82.05Z" transform="translate(-1.85 -18)"/><path class="cls-2" d="M98.32,58c-.3.87-.41,1.78-.74,2.66a16.49,16.49,0,0,1-3.41,5.4,1.54,1.54,0,0,1-.59-1.49c.06-1.17-.21-2.33-.12-3.46.13-1.66-.22-3.33.18-5a8.16,8.16,0,0,0,0-2.26c-.07-1.35.16-2.67.14-4a8.66,8.66,0,0,0,0-2c-.14-.59-.26-1-1-1-.14,0-.22-.11-.26-.24,0-.53.45-.8.77-1.13a15.78,15.78,0,0,0,4-6.51,11,11,0,0,0,.42-4.15,1.76,1.76,0,0,1,.19-1.36c.46.34,0,.95.4,1.31Z" transform="translate(-1.85 -18)"/><path class="cls-3" d="M97.92,33.42a14.24,14.24,0,0,1-.58,6.35,18,18,0,0,1-4.69,6.74,1.9,1.9,0,0,1-.75.91,41.71,41.71,0,0,1-3.51,2.39,43.12,43.12,0,0,1-12.81,4.71,61.76,61.76,0,0,1-15.35,1.1,57.45,57.45,0,0,1-7.5-.88,61.07,61.07,0,0,1-9.31-2.46A44.58,44.58,0,0,1,34.94,48c-.36-.24-.77-.43-.93-.88,0-.36.48-.27.61-.53s.54-.49.86-.67c1.46-.82,2.89-1.68,4.34-2.52a2,2,0,0,1,1-.36c1.51.8,2.89,1.85,4.43,2.61a17.65,17.65,0,0,0,3.32,1.42,40.81,40.81,0,0,0,8.84,2.11,15.57,15.57,0,0,0,2.81.29,44.75,44.75,0,0,0,5.79,0,33.12,33.12,0,0,0,5.35-.64c.29-.08.59-.1.88-.2a17.87,17.87,0,0,0,2.9-.74c.56-.22,1.15-.34,1.69-.58a6,6,0,0,0,1-.39c.92-.42,1.86-.82,2.75-1.31,2.49-1.41,4.82-3,6.16-5.66a9.22,9.22,0,0,0-.9-10.61,1.71,1.71,0,0,1-.18-.2,13.44,13.44,0,0,0-4.09-3.89c-.25-.17-.53-.32-.77-.52a6.8,6.8,0,0,0-1-.57,8,8,0,0,0-2.27-1.07.71.71,0,0,1-.64-.69c.11-.43.59-.38.84-.64l5.13-2.9c.31-.17.58-.44,1-.22,4.45,2.12,8.49,4.78,11.44,8.83A16.48,16.48,0,0,1,97.92,33.42Z" transform="translate(-1.85 -18)"/><path class="cls-3" d="M35.16,37.18q15.39-8.87,30.77-17.73a1.85,1.85,0,0,1,1.33-.24,45.4,45.4,0,0,1,9.58,2.59c.13.43-.24.53-.49.67-1,.56-2,1.16-3,1.71-1.68,1-3.38,2-5,2.89A14,14,0,0,1,73,28.93a16,16,0,0,1,3.35,2.8,5.92,5.92,0,0,1,1.28,4.77,6.23,6.23,0,0,1-1.14,2.41,17.16,17.16,0,0,1-2.18,2,22.87,22.87,0,0,1-2.7,1.38c-.84.26-1.66.59-2.51.8a23.05,23.05,0,0,1-4.46.55h-2.1c-4.32-.29-8.45-1.18-12-3.94a4.51,4.51,0,0,1-.85-.71c-.48-.69-1-.65-1.63-.24-.89.57-1.81,1.09-2.72,1.61-1.56.89-3.09,1.82-4.68,2.65a1.3,1.3,0,0,1-1.79,0,15.39,15.39,0,0,1-3.63-4.36C35.05,38.2,34.57,37.69,35.16,37.18Z" transform="translate(-1.85 -18)"/><path class="cls-4" d="M34,47.14A46.93,46.93,0,0,0,43.42,52c0,.18-.08.26-.22.32a1.27,1.27,0,0,1-.83-.13,47.16,47.16,0,0,1-7.79-4,1.06,1.06,0,0,0-.52-.19c-.49.1-.56.55-.75.89-2.77,5-5.13,10.16-7.7,15.23C24.3,66.68,23.24,69.38,22,72a26.46,26.46,0,0,0-1.49,3.68L9.58,82a.09.09,0,0,1,0-.11,2,2,0,0,1-.26-1.44c0-5.77,0-11.54,0-17.31A2.3,2.3,0,0,0,8,60.71c-1.73-.86-3.34-2-5-2.89a1.84,1.84,0,0,1-.84-.72.9.9,0,0,1,.71-.41c2,1.35,4.14,2.44,6.2,3.67.55.33,1,.06,1.5-.2,2-1.1,3.89-2.25,5.85-3.36,5.27-3,10.47-6.09,15.75-9.06a5.78,5.78,0,0,0,1.36-1C33.81,46.64,33.5,47.47,34,47.14Z" transform="translate(-1.85 -18)"/><path class="cls-3" d="M33.45,46.75c.15.53-.3.62-.6.79L17.94,56.15c-2.59,1.49-5.2,3-7.78,4.47a1,1,0,0,1-1.11.06c-2-1.16-3.94-2.28-5.91-3.42-.2-.12-.6-.15-.35-.57q12.38-7.12,24.75-14.28c.78-.45,1.18-.52,1.77.3A18,18,0,0,0,33.45,46.75Z" transform="translate(-1.85 -18)"/><path class="cls-5" d="M2.08,57.1l7,3.95c.51.28.48.73.48,1.21q0,9.46,0,18.92c0,.22,0,.44,0,.66A5.41,5.41,0,0,1,7.75,81c-1.68-1-3.36-1.94-5-2.89a1,1,0,0,1-.66-1C2.08,70.41,2.07,63.76,2.08,57.1Z" transform="translate(-1.85 -18)"/><path class="cls-6" d="M34.61,46.34l0-8.6c.34-.08.44.2.51.41a15.7,15.7,0,0,0,1,1.76.81.81,0,0,1,0,.55c-.53,1.07-.23,2.26-.49,3.36,0,.17-.13.35.09.49.71.44.73.51.22,1.07a1.92,1.92,0,0,0-.39.51A1,1,0,0,1,34.61,46.34Z" transform="translate(-1.85 -18)"/><path class="cls-7" d="M34.61,46.34l.75-.5c.87-.79,2-1.22,2.87-2a3.69,3.69,0,0,0,.58-.4c-1-1.16-2.24-2.08-2.89-3.49-.61-.65-.72-1.59-1.34-2.23,0-.37.2-.57.58-.56-.27.31,0,.57.09.85a16.2,16.2,0,0,0,4,4.95c.57.51.9,0,1.33-.13a.24.24,0,0,1,.18.31c-2.09,1.09-4,2.45-6.17,3.45Z" transform="translate(-1.85 -18)"/><path class="cls-8" d="M73.31,24c1.09-.87,2.48-1.29,3.53-2.23l.81,0c-.18.31-.54.35-.78.55s-.45.36-.51.65-.09,1-.65,1.22a5.32,5.32,0,0,0-.79.29A1.19,1.19,0,0,1,73.31,24Z" transform="translate(-1.85 -18)"/><path class="cls-5" d="M71.43,75.85a51.35,51.35,0,0,1-10.29.5,61.64,61.64,0,0,1-10.23-1.26,4.68,4.68,0,0,1-.53-.17c-.52-.36-1.14-.51-1.67-.83-.29-.17-.71-.3-.58-.73s.26-.84.7-.94.65.26.81.66a4.71,4.71,0,0,1,1.5-2.71c-.39.38-1.1,1-1.77,1.57-.2.18-.29.56-.65.37a.61.61,0,0,1-.22-.76c.38-1.12.73-2.29,2.2-2.65-.29-.12-.66-.08-.58-.49s.44-.33.54-.6c-.22-.15-.43,0-.63,0-.62.17-1.09.14-1-.7a.37.37,0,0,0-.19-.4c-.5-.27-.47-.52,0-.79a.47.47,0,0,0,.18-.31,1.3,1.3,0,0,1,2-.9c.77.42.67-.15.73-.51a2.2,2.2,0,0,0-.19-.72c-.25-1-.26-1-1-.41-.38.27-.78.48-1.16,0s-.23-.87.22-1.2a.69.69,0,0,0,.38-.59c0-.94.12-1,1-.7.09,0,.16.11.33,0A2.24,2.24,0,0,1,50,58.18c0-.43-.36-.81-.14-1.34.14-.32-.35-.35-.58-.47-.81-.4-.89-1-.22-1.55.17-.14,0-.13-.09-.18-.18-.25-.3-.49.06-.7,1.18.14,2.34.46,3.52.66A62.3,62.3,0,0,0,68,55.42,22.41,22.41,0,0,1,71,55.21c.65,0,.8.5.88,1a31.58,31.58,0,0,1,0,4c.1,3,0,6,.08,9.06,0,1.84,0,3.68,0,5.52A1.22,1.22,0,0,1,71.43,75.85Z" transform="translate(-1.85 -18)"/><path class="cls-9" d="M48.87,54.06c0,.39.29.51.55.69s.44.3.28.51-.43,0-.6-.16a3.15,3.15,0,0,0-.29-.23c0,.69-.09,1.21.74,1.37.26.06,1.33.14.41.91-.21.18,0,.33.11.48s.33.43.23.68c-.27.7-.17,1.16.69,1.15-.07.37-.43.15-.51.4s.05.19.15.15c.52-.2.63.56,1.12.48,0,0-.07.26-.18.36s-.27.38-.54.16a1.41,1.41,0,0,0-.54-.33c-.34-.07-.64.1-.36.45.44.52.11.7-.28.9s-.58.24-.51.67a.5.5,0,0,0,.36.48c.34.11.6-.12.8-.36s.48-.53.86-.42.28.49.35.79c.16.66.64,1.31-.1,2-.18.15-.38.38-.45.16-.28-.93-1-.25-1.51-.48-.17-.08-.61.21-.42.54.42.74-.14.78-.68,1,.43.24,1.22.21.69,1-.22.35.13.43.38.39s.46-.23.7-.28.78,0,.87.32-.34.33-.59.4a.39.39,0,0,0-.34.38c.22.22.42-.06.63,0s.37.14.36.36-.19.21-.4.24a2.61,2.61,0,0,0-2.05,3c1-.92,1.9-2,3.29-2.46a5.75,5.75,0,0,0-2.26,3.92c-.32,0-.21-.3-.31-.45s-.33-.7-.62-.59a1.31,1.31,0,0,0-.61.85c0,.24.33.41.58.5.58.22,1.23.3,1.51,1A40.43,40.43,0,0,1,42,72.43a22.61,22.61,0,0,1-3.89-1.83.53.53,0,0,0-.17-.42c-.81-.7-1-1.18-.53-2.06a.92.92,0,0,0-.22-1.24c-.54-.52-.78-1.28-1.51-1.68-.46-.25-.34-.85-.14-1.27s.51-.32.83-.24.32.26.12.51c.29-.25.14-.4-.06-.56a3.14,3.14,0,0,1-1.37-2.35.56.56,0,0,0-.33-.52c-.23-.1-.4-.3-.31-.51.37-.95-.36-1.95.21-2.9.21-.35-.25-.67-.31-1s-.25-1,.6-1a.33.33,0,0,1,.1.25c1-.4,1.46.77,2.26.63.12.3,0,.43-.09.43-1.07,0-.87.78-.83,1.41,0,.39.26.77-.21,1.07l.23.1c1.16-.37,1.16-.37,1.33.83,0,.19,0,.39.23.48.67.37.53.72-.06,1.06a.69.69,0,0,0,.21-.1c.44-.24.58-1.16,1.18-.83A2.73,2.73,0,0,1,40.8,62.1a1.57,1.57,0,0,0,1.32,1.17c-1.31-.56-.67-1.63-.63-2.45s.89-.92,1.69-.22c-.21-.52-.7-.76-1-1.17-.13-.22-.51-.44-.2-.71a.66.66,0,0,1,.93.1c.14.15.18.42.52.38-.4-.44-.87-.75-1.26-1.15-.19-.2-.47-.4-.2-.71a.63.63,0,0,1,.91-.17c.34.22.66.46,1,.73a5.47,5.47,0,0,0-.58-1.3.48.48,0,0,1,0-.68c.28-.33.24-.77.44-1.12s.11-.71-.34-1a1.61,1.61,0,0,1-1-1.81l.73.18c1.82.45,3.58,1.11,5.4,1.55C48.76,53.79,48.92,53.84,48.87,54.06Z" transform="translate(-1.85 -18)"/><path class="cls-10" d="M35,55.39c-1,.29-.36.87-.18,1.28s.36.51.15.83a1.28,1.28,0,0,0,0,1.73c.12.12-.11.21-.1.31,0,.36-.87,1,.32,1,.19,0,.14.32.13.49a2.64,2.64,0,0,0,1,2.14c.22.21.5.4.53.74s0,.58-.35.65c-.12,0-.26.12-.34,0-.17-.35.11-.49.37-.65-.33-.12-.88,0-.81.11.17.37-.22.92,0,1,.48.09.59,1.11,1.37.4-.2.55-.38.9.23,1.27a1,1,0,0,1,.24,1.63A1.11,1.11,0,0,0,38.13,70c.43.14.43.14,0,.61a20,20,0,0,1-3.6-2.12,1.2,1.2,0,0,0-1.5,0c-4.18,2.43-8.37,4.83-12.56,7.24-.11-.05-.4-.05-.22-.25a4.1,4.1,0,0,0,.63-1.38c1-2.32,1.93-4.68,3-7,1.91-4,3.88-8,5.87-12,1.17-2.33,2.43-4.63,3.64-6.94.13-.26.23-.52.6-.46A24.33,24.33,0,0,0,35,51c0,.12,0,.29,0,.36-.94.9,0,1.64.24,2.39S35.52,54.91,35,55.39Z" transform="translate(-1.85 -18)"/><path class="cls-11" d="M86.84,71.34A19.07,19.07,0,0,1,83.09,73c0-1.86-.48-3.71-.17-5.58a5.84,5.84,0,0,0,0-1.77,11.74,11.74,0,0,1-.06-3.45,39.94,39.94,0,0,0,0-5.89,12.62,12.62,0,0,0-.06-3.63c0-.42.34-.49.62-.59A20.23,20.23,0,0,0,85.93,51c.65-.34.94-.07,1.12.49a4.59,4.59,0,0,1,.34,1.65c-.19,2.11.15,4.22-.09,6.35a47.87,47.87,0,0,0,0,8c0,1-.06,1.93,0,2.89A1.15,1.15,0,0,1,86.84,71.34Z" transform="translate(-1.85 -18)"/><path class="cls-12" d="M86.84,71.34a11.14,11.14,0,0,0,.21-3.73c-.06-.86,0-1.72,0-2.58s0-1.66-.08-2.49a33.92,33.92,0,0,1,.12-3.77,11.67,11.67,0,0,0,0-3.39c-.23-1.18.22-2.39-.19-3.59-.23-.65-.34-1-1-.54-.92.57-2,.71-3,1.32s-2,.72-2.92,1.14c-.45.14-.91.24-1.35.38s-.83.22-1.24.34-1,.35-1.59.1a.17.17,0,0,1,0-.26c2.11-.55,4.24-1.07,6.3-1.81a44.7,44.7,0,0,0,6.3-2.88A2.81,2.81,0,0,0,89.52,49c.7-.39,1.08-.24,1.1.56a21.78,21.78,0,0,1,.15,2.89,39.73,39.73,0,0,0-.09,6.07c0,1.37-.46,2.76.06,4.14a4,4,0,0,1-.08,1.67c-.13,1.4.29,2.8,0,4.19-.06.24,0,.5-.2.71A17.86,17.86,0,0,1,86.84,71.34Z" transform="translate(-1.85 -18)"/><path class="cls-13" d="M90.41,69.27a3.42,3.42,0,0,1,0-1.46c.29-1.18-.24-2.35,0-3.55a4.51,4.51,0,0,0-.16-2.64.45.45,0,0,1,0-.28c.51-2.12.1-4.29.16-6.43,0-1.4.39-2.84-.06-4.26-.16-.52.39-1.32-.2-1.63s-.92.51-1.46.67a.27.27,0,0,1-.32-.11,40.35,40.35,0,0,0,4.29-3.07c1.25.18,1.69,1.29,1.52,2.62a10.52,10.52,0,0,0-.27,4,1.44,1.44,0,0,1,0,1.1A1.28,1.28,0,0,0,94,55.7c.09.12.18.39.14.42-.77.52-.28,1.24-.31,1.86a42.66,42.66,0,0,0,.07,5.54,6.17,6.17,0,0,0,.32,2.56A28.69,28.69,0,0,1,90.41,69.27Z" transform="translate(-1.85 -18)"/><path class="cls-14" d="M71.43,75.85c.57-.89.25-1.89.22-2.8-.07-1.7,0-3.4,0-5.1-.09-3.16,0-6.32,0-9.49a9.1,9.1,0,0,0,0-2.39c-.1-.37-.17-.65-.6-.69.3-.48.8-.3,1.22-.37a11.57,11.57,0,0,1,2.55-.33,2.09,2.09,0,0,1,.57,2c-.23,2.69.1,5.37,0,8.05-.09,2,.15,4,0,6a17.48,17.48,0,0,0,.05,2.89,1.6,1.6,0,0,1-.58,1.67A14.53,14.53,0,0,1,71.43,75.85Z" transform="translate(-1.85 -18)"/><path class="cls-15" d="M79.89,53.53l3-1a2.6,2.6,0,0,1,.3,2.5,7.25,7.25,0,0,0,0,2.46c.27,2.35-.33,4.66-.09,7s-.22,4.95.16,7.42A1.52,1.52,0,0,1,83.09,73a16,16,0,0,1-3,1,2.82,2.82,0,0,1-.33-2.16,10.82,10.82,0,0,0,.08-2.78,21,21,0,0,1-.11-4.18c.22-1.84-.16-3.65,0-5.48a48.93,48.93,0,0,0,0-5.28A.79.79,0,0,1,79.89,53.53Z" transform="translate(-1.85 -18)"/><path class="cls-16" d="M74.82,75.31c.74-1,.29-2.27.25-3.35a14.82,14.82,0,0,0,.07-3.12,17.36,17.36,0,0,1-.06-4.32c0-2.64-.33-5.28.07-7.92a2.89,2.89,0,0,0-.34-1.78c.15-.55.6-.31.94-.35l1.68-.23c.71.19.64.84.61,1.29-.11,1.86.07,3.73-.07,5.59-.1,1.33.09,2.66,0,4-.18,2.91.13,5.83,0,8.74a1.22,1.22,0,0,1-.31.86A11.72,11.72,0,0,1,74.82,75.31Z" transform="translate(-1.85 -18)"/><path class="cls-17" d="M79.89,53.53a21.45,21.45,0,0,1,.1,4.32c-.15.82.05,1.76,0,2.66-.15,1.32.26,2.6.07,4a23.07,23.07,0,0,0,.06,4.23A7.27,7.27,0,0,1,80,71.82,5.91,5.91,0,0,0,80.1,74l-1.52.47a.72.72,0,0,1-.18-.61c0-2.54.08-5.09.08-7.63a27.41,27.41,0,0,0-.12-5.12A10.28,10.28,0,0,1,78.44,59a21.86,21.86,0,0,0,0-4.28.94.94,0,0,1,.11-.81Z" transform="translate(-1.85 -18)"/><path class="cls-17" d="M78.58,53.9a12,12,0,0,1,.21,3.59,40.71,40.71,0,0,0,0,5.74,51,51,0,0,1,0,5.93c-.14,1.78.18,3.56-.14,5.33l-1,.23a30.06,30.06,0,0,1,.1-3.92c.12-1.34-.17-2.64,0-4a19.07,19.07,0,0,0,0-4.47c-.17-1.07.15-2.21,0-3.29-.18-1.6.51-3.25-.3-4.81A3.55,3.55,0,0,1,78.58,53.9Z" transform="translate(-1.85 -18)"/><path class="cls-18" d="M50.56,39.44a21.72,21.72,0,0,0,11.85,4c.17.08.3.18.21.4-.36.4-.73,0-1.1,0-1.16.3-2.23-.24-3.39-.41.31.55.11.71-.53.53a2.81,2.81,0,0,1,1.84,2c-.11.25-.47.16-.59.46.35,0,.44-.28.6-.46a.88.88,0,0,1,1.24-.17c.42.26.77.55.47,1.11a.25.25,0,0,0,0,.19,2.1,2.1,0,0,1-.71,2.27.43.43,0,0,1-.29.39,9.66,9.66,0,0,1-2.88-.32c-.18-.42-.12-1-.83-1,0,0-.06,0-.05-.06.22-1-1-1.07-1.24-1.78,0-.09-.11-.39-.25-.25-.65.66-.95,0-1.24-.35a1,1,0,0,1,.25-1.34c.67-.64.25-1-.2-1.33a3,3,0,0,0-2.11-.79A1.17,1.17,0,0,1,50.52,42a1.37,1.37,0,0,1-.83,1.42c-.53.26-.62.67-.19,1.13s.33.73-.2.89c-.38.11-.52.25-.32.64.48.95.48.95-.66,1.24a13.56,13.56,0,0,1-3.23-1.44,1,1,0,0,1,.06-1.21,18.36,18.36,0,0,0,1.32-2.48,1.87,1.87,0,0,1,.66-.89.57.57,0,0,1,.26,0,.86.86,0,0,1,.41.64c.15-.38.7-.27.75-.73,0-.24.63-.6-.18-.63-.24,0-.26-.42-.09-.52.51-.3.63-.91,1.07-1.23C49.9,38.74,50,39.45,50.56,39.44Z" transform="translate(-1.85 -18)"/><path class="cls-19" d="M79.89,24a2.19,2.19,0,0,1,.94.55c.45.66,1.2.94,1.78,1.43A7.22,7.22,0,0,1,85,28.43c.08.19.54.42.81.65h0a9.67,9.67,0,0,1,2.19,5.65c-.07.49-.19.92-.79.44-.11-.08-.22-.19-.3,0-.28.5-.61.07-.94,0,.31.14.55.29.5.65,0,.12,0,0,0,.09-.54,1-.48,1-.37,1.1a1.91,1.91,0,0,0,1.39.87.32.32,0,0,1,.09.23A2.78,2.78,0,0,0,87,39.48c-.1.24-.16.5-.28.73a.36.36,0,0,1-.25,0c-.28-.22-.55-.43-.81,0a.79.79,0,0,1-1.41-.67c.15-.71-.14-1.46.21-2.16,0,0,0,0,0,0-.3.07-.42-.21-.63-.32-.11.52-.51.32-.82.35s-.39.29-.5.51-.25.45-.56.38a.59.59,0,0,1-.42-.57c0-.41-.17-.87.38-1.16-.55.06-.43.81-1,.82a3.07,3.07,0,0,0-.89.23c-.28.06-.8.42-.68-.35-.88,0-.84-1.13-1.62-1.22A7.89,7.89,0,0,0,77.12,33c0-.36.2-.67.63-.64a.61.61,0,0,1,.56.64c0,.34.11.48.52.36a.57.57,0,0,1,.78.39c0-.41-.39-1.2.69-1,.35.65.18,1.4.45,2.15-.1-.68.21-.73.47-.6a5.55,5.55,0,0,1-.83-.4c.27-.45.5-.87,1.08-.41.4.31.91.12,1.38.34,0-.34-.58-.49-.21-.84a.64.64,0,0,1,1,0c.33.36.3,0,.36-.15.63-.22,1.27-.53,1.86.26,0-.4.08-.78-.14-.86-.44-.18-1-.55-1.29.28-.06.17-.31.19-.44.33a.74.74,0,0,1-.54-1.18,1.61,1.61,0,0,1,.67-.71c-.57-.25-.66-.68-.74-1.21,0-.36.33-.84-.23-1.12-.4-.2.16-.42,0-.64s-.7,0-.85-.41a1.27,1.27,0,0,0-.29-.58,1,1,0,0,1-.17-.18c-.65-.18-1.13-.92-1.93-.57a.57.57,0,0,1-.21.13c-1.12.73-1,.68-1.5-.29a1.3,1.3,0,0,1,.2-1.55A1.34,1.34,0,0,1,79.89,24Z" transform="translate(-1.85 -18)"/><path class="cls-20" d="M79.89,24c-.1.6-.52,0-.8.22s-.43.81-.63.93c-.83.46.24.58.1.89,0,0,.18.18.08.3s-.16.44.07.54.31-.19.36-.34c.15-.47.48-.38.82-.3s.63.41.45.85c.25-.47-.16-.63-.45-.85-.38-.67.24-.47.42-.4a11,11,0,0,0,1.7.7l-.05.27c-.1.09-.28.09-.31.28.15-.05.19-.21.31-.29.31.08.7.1.52.6-.06.17.08.3.14.27.8-.38.79.58,1.31.7-.33.27-.53-.17-.8-.1.11.48.52.34.77.49-.55.4-.4,1,.62,2.51-.6-.15-.84.32-1,.67-.06.18-.25.88.45.87h0l.33,1a.39.39,0,0,1-.58-.28.71.71,0,0,0-.52-.58c-.24-.1-.47,0-.62.32l.73.36a1.56,1.56,0,0,1-2,.1c-.42-.52-.57-.18-.8.13l.79.37a1.5,1.5,0,0,1,.23.15c-.22.25-.47,0-.7.09-.11.31.36.43.23.78-.06.12-.17.05-.29,0-.4-.07-.73-.44-.61-.67.34-.63-.12-1.21,0-1.8.07-.86,0-1.74.15-2.6a.42.42,0,0,1,.33-.08c.14,0,.21-.06.18-.21a.12.12,0,0,0,0-.08c-.16-.09-.18.07-.25.14s-.11.14-.18.2c-.47,0-.43.57-.94.66s-.49,0-.68-.26a8.62,8.62,0,0,0-1.63-1.83c-.2-.09-.43-.08-.64-.15A1.13,1.13,0,0,1,76,27.08c.43-.83,1-1.61.2-2.57-.25-.29-.06-.73,0-1.08s.14-.48,0-.7a1,1,0,0,1,.72-.4c.14.22.21.43.55.51A7.87,7.87,0,0,1,79.89,24Z" transform="translate(-1.85 -18)"/><path class="cls-21" d="M48.32,47.27l1-.64a1.33,1.33,0,0,1-.6-.77c-.11-.46-.39-.83.42-.6,0,0,.56,0,.5-.37s-.51-.15-.75-.24c-.16-.37.58-.66,0-1.06-.22-.16,0-.57.25-.51,1.08.29,1.17-.33,1.15-1.12,0-.11.1-.22.21-.44.38.86,1.06.69,1.75.72s1.24.57,1.82.93c1.16.73.19,1.47-.17,2-.55.79.25.89.49,1.09s.44-.26.68-.57c.14.34.24.64.38.93s.28.39.34.37c1.14-.42.69.45.7.89s-.07.65.41.29a.3.3,0,0,1,.26,0c.52.35.28.8.15,1.23A33.29,33.29,0,0,1,48.32,47.27Z" transform="translate(-1.85 -18)"/><path class="cls-22" d="M76.31,38.83a8.49,8.49,0,0,0,1.08-2.25.41.41,0,0,1,.47,0,7.85,7.85,0,0,1,.24,2.85c0,1,0,1.92,0,2.88a6,6,0,0,0,.17,1.74c-.39.46-.17,1-.34,1.54-.54.53-.52,1.36-1,1.9a5.9,5.9,0,0,1-1.69.56c-.69-.19-1-.58-.58-1.26a1.3,1.3,0,0,0,.12-1.07.67.67,0,0,1,.4-.93c-.28-.16-.58-.28-.71-.58s-.11-.64.3-.53c.6.16.55-.18.54-.53a2.3,2.3,0,0,0-.08-.83,1.45,1.45,0,0,1,.31-1.48A4.56,4.56,0,0,0,76.31,38.83Z" transform="translate(-1.85 -18)"/><path class="cls-23" d="M47.2,41.31c-.67,1.23-1.3,2.49-2,3.69-.2.33.23.59-.07.83a22.7,22.7,0,0,1-4.3-2.67l-.18-.31,4.7-2.67c.63-.07.61.25.3.59s-.57.32-.38.69C45.79,40.51,46.55,41.46,47.2,41.31Z" transform="translate(-1.85 -18)"/><path class="cls-24" d="M69.18,42.82l2.44-.76c.27.12.48-.14.72-.1.4,0,.82.29.49.71s-.15.7.08,1c.4.47.3.83-.16,1.18s-.61.56-.27,1.06a.67.67,0,0,1-.08.79.79.79,0,0,0,0,1.18.67.67,0,0,1,.12.63c-.1.24-.34.24-.54.29a1.17,1.17,0,0,0-.46.06c-.07,0-.13,0-.19,0s.16.08.19.17a24.48,24.48,0,0,1-5.52.7c-.12-.11-.36,0-.41-.24.21-.51.64-.36,1-.35s.81,0,1.22,0c1.21,0,2-.31,2.2-1.83a2.93,2.93,0,0,1,.62-2.11c.22-.21-.06-.48-.25-.61-.61-.38-.65-.79.15-1.37-.63,0-1,.13-1.33-.13a.18.18,0,0,1,0-.15C69.15,42.85,69.16,42.82,69.18,42.82Z" transform="translate(-1.85 -18)"/><path class="cls-25" d="M71.81,48.62c.2,0,.43,0,.57-.18s.54-.24.15-.6a.47.47,0,0,1,.14-.73c.46-.3.53-.78.74-1.23A3.5,3.5,0,0,0,73.56,44a3.34,3.34,0,0,1,.52-2.43c.19-.25,0-.55.17-.8l2.06-1.91c.47.67,0,1.27-.31,1.71a2,2,0,0,0-.54,2.06,2.4,2.4,0,0,1,0,.54c0,1-.06,1.14-.94.75.35.66.35.66,1.23.74-1.27.33-.5,1.25-.74,1.8-.31.7-.43,1.14.17,1.64a10.36,10.36,0,0,1-3,.77C72,48.89,71.8,49,71.81,48.62Z" transform="translate(-1.85 -18)"/><path class="cls-26" d="M75.75,54.47c-.23.33-.71,0-.94.35L71,55.38a85.29,85.29,0,0,1-9,.37,55.34,55.34,0,0,1-9.6-1.08c0-.12.14-.13.22-.18A64.34,64.34,0,0,0,70.31,55c1.82-.22,3.63-.51,5.45-.77Z" transform="translate(-1.85 -18)"/><path class="cls-27" d="M77.82,45.63c.21-.48-.59-1.2.35-1.5a3.81,3.81,0,0,1,2.52,1.26.29.29,0,0,1-.06.38,13.93,13.93,0,0,1-2.8,1.36C77.45,46.65,77.45,46.49,77.82,45.63Z" transform="translate(-1.85 -18)"/><path class="cls-28" d="M87.79,34.73a11.19,11.19,0,0,0-1.5-4.62c-.2-.33-.6-.58-.56-1a8.46,8.46,0,0,1,2.46,5.49,8.49,8.49,0,0,1-1.35,5.62.12.12,0,0,1-.2,0l.2-.75a6.5,6.5,0,0,1,.55-1.31v-.18c0-.46.21-.87.15-1.33,0-.13,0-.27,0-.41C87.41,35.67,88,35.27,87.79,34.73Z" transform="translate(-1.85 -18)"/><path class="cls-12" d="M86.64,40.17h.2a14.18,14.18,0,0,1-6.21,5.59v-.31c.22-.41.65-.55,1-.78a7.08,7.08,0,0,0,1.58-1.25c.66-.66,1.55-1.07,1.78-2.19a2.34,2.34,0,0,1,1.45-1.09Z" transform="translate(-1.85 -18)"/><path class="cls-29" d="M52.62,54.49l-.22.18-3.53-.61c-1.61-.49-3.22-1-4.84-1.46a2,2,0,0,1-.82-.39l.21-.19A71.33,71.33,0,0,0,52.62,54.49Z" transform="translate(-1.85 -18)"/><path class="cls-30" d="M85.77,29.08c-.33.2-.47-.92-.89-.13-.06,0-.17-.09-.17-.14,0-1.42-1.26-1.87-2.14-2.54a15.15,15.15,0,0,0-1.91-1.44c-.23-.12,0-.21.17-.24a17.22,17.22,0,0,1,4.47,3.72C85.49,28.54,85.76,28.73,85.77,29.08Z" transform="translate(-1.85 -18)"/><path class="cls-21" d="M65.59,49.56l.38.17a32.21,32.21,0,0,1-5.81,0l.16-.38a.69.69,0,0,1,.93-.31,5.33,5.33,0,0,0,1.93.23,5.39,5.39,0,0,0,1.39,0C64.94,49.26,65.32,49.21,65.59,49.56Z" transform="translate(-1.85 -18)"/><path class="cls-31" d="M77.82,45.63v1.5a1.37,1.37,0,0,1-.94.38C77.05,46.81,77.06,46,77.82,45.63Z" transform="translate(-1.85 -18)"/><path class="cls-30" d="M71.81,48.62c.09.18.28.19.44.22a1.09,1.09,0,0,1-.76.19L71,49C71.33,48.92,71.37,48.31,71.81,48.62Z" transform="translate(-1.85 -18)"/><path class="cls-32" d="M64,37.2a5.08,5.08,0,0,1-3.63-.39A1.19,1.19,0,0,1,60.13,35c.47-.34.2-.81.17-1.2a1,1,0,0,1,1-1.18,12.11,12.11,0,0,1,3.4.24.44.44,0,0,1,.41.16,3.51,3.51,0,0,0,.81.73,1.58,1.58,0,0,1-.27,2.74,3.54,3.54,0,0,1-1.55.53C64.13,37.14,63.5,36.83,64,37.2Z" transform="translate(-1.85 -18)"/><path class="cls-33" d="M73.31,24c.75.62,1.5.26,2.25,0a4,4,0,0,1-.69,2.06,25.26,25.26,0,0,0-1.05,2.38c-.29.22-.38.73-.9.64a23,23,0,0,0-4.93-2C69.8,26,71.53,25,73.31,24Z" transform="translate(-1.85 -18)"/><path class="cls-34" d="M72.92,29.11c.41-.1.38-.64.77-.76.79.66,1.25,1.65,2.26,2.3,0-.77,0-1.49.59-1.95a.62.62,0,0,1,.7,0,.34.34,0,0,1,.53.17,2.25,2.25,0,0,0,1,1.11.49.49,0,0,1,.27.63c0,.12,0,.23.19.24-.1-.6.7-.11.76-.67s.29.06.45,0h0c.29.69,0,1.43.16,2.13.07.22-.14.4-.35.49-.48,0-.7.29-.54.64.23.51,0,.59-.39.74-.3-.2.35-.41,0-.56-.17-.08-.38-.26-.59,0-.63.68-.58.15-.64-.33s-.11-1.21-.86-.45c-.63-.1-.5-1-1.16-1.08A17.61,17.61,0,0,0,72.92,29.11Z" transform="translate(-1.85 -18)"/><path class="cls-30" d="M74.25,40.74a.78.78,0,0,1-.06,1.06,2.65,2.65,0,0,0-.36,2.3,1.18,1.18,0,0,1-.28,1.1h.61c-.92.34-.31,1.53-1.07,1.9-.23.12-.49.17-.49.47s.46.22.67.49l-.89.38c-.21-.49-.4-1-.61-1.48,0-.11-.12-.2,0-.3.59-.46.62-.47.35-1a.81.81,0,0,1,.41-1.1c.52-.23.53-.26.21-.75-.14-.21-1.35-.91,0-1.32.08,0-.17-.36-.38-.39s-.53.28-.77-.06Z" transform="translate(-1.85 -18)"/><path class="cls-35" d="M47.2,41.31c-.32,0-.63.42-.94,0-.15.29-1-.63-.73.41,0,.22-.21.16-.34.2s-.15-.1-.18-.25c-.07-.48-.23-.95.52-1,.16,0,.15-.11-.22-.44,1.12-.67,2.25-1.33,3.36-2,.34-.21.53-.12.77.15s.74.76,1.12,1.13c-.63.31-.68-.52-1.12-.58s-.51-.06-.67.24a6.79,6.79,0,0,0-.72,1.39,1.08,1.08,0,0,1-.69.81Z" transform="translate(-1.85 -18)"/><path class="cls-36" d="M60.18,35.12a1.73,1.73,0,0,0,.14,1.69,2,2,0,0,1-1-.54c-1.37-1.08-1.25-2.36.3-3.24.15-.09.41-.09.39,0C59.85,33.78,60.37,34.42,60.18,35.12Z" transform="translate(-1.85 -18)"/><path class="cls-37" d="M60.18,35.12c-.11-.64-.6-1.21-.33-1.93,0-.14-.17-.12-.28-.16a5.92,5.92,0,0,1,5.1-.18c-.19.3-.42.11-.66.07-.69-.1-1.38-.22-2.07-.25-1.24-.05-1.69.49-1.34,1.86C60.76,35.14,60.42,35,60.18,35.12Z" transform="translate(-1.85 -18)"/><path class="cls-37" d="M64,37.2l-1-.14a11.91,11.91,0,0,0,2.36-.62,1.45,1.45,0,0,0,.4-2.62c-.25-.22-.74-.3-.64-.81a2.65,2.65,0,0,1,1.07.71A1.66,1.66,0,0,1,66,36.43,3.57,3.57,0,0,1,64,37.2Z" transform="translate(-1.85 -18)"/><path class="cls-38" d="M76.1,31.77c.37-.44.43.07.56.21a10.33,10.33,0,0,1,.6.87,9,9,0,0,1,.58,3.39.26.26,0,0,1,0,.38l-.4,0A6.19,6.19,0,0,0,76.1,31.77Z" transform="translate(-1.85 -18)"/><path class="cls-39" d="M69.18,42.82V43a.19.19,0,0,1,0,.26,11.51,11.51,0,0,1-4.58.59c-.25-.21-.09-.33.1-.45A34.49,34.49,0,0,0,69.18,42.82Z" transform="translate(-1.85 -18)"/><path class="cls-40" d="M64.66,43.4l-.17.33a1.59,1.59,0,0,1-1.9,0l-.18-.34Z" transform="translate(-1.85 -18)"/><path class="cls-14" d="M35,55.39a2.67,2.67,0,0,0-.7-2.66c-.26-.33-.21-.71,0-.83,1.08-.66.37-1.54.08-2-.45-.75-.21-1.45-.3-2.17,1.21.45,2.17,1.34,3.32,1.89L42.48,52A2.25,2.25,0,0,0,44,53.87c.25.06.44.22.29.46-.29.45-.29,1.19-.51,1.39-.61.53-.26.72,0,1.15a4.33,4.33,0,0,1,.37,1.28A1.5,1.5,0,0,1,43,57.49c-.42-.43-.67-.25-1,.12.75.28.93,1.27,1.86,1.3.18,0,.15.26,0,.38a.57.57,0,0,1-.9,0c-.51-.48-.51-.49-.84-.48,0,.87,1.75,1,1,2.3-.21-.47-.34-1-1-.82s-.6.63-.43,1.14a.74.74,0,0,1,0,.55c-.32.45-.19.64.31.76s.65.36.43.76-.53,0-.75-.12c-.5-.23-1-.47-1-1.17,0-.34-.27-.94-.92-.87-.07,0-.17-.07-.24-.13-.49-.51-.51-.53-.89.12-.28.48-.59.66-1.12.43.13-.45.51-.55,1.07-.77-1-.22-1.17-.76-.95-1.47a.39.39,0,0,0-.19-.48c-.28-.16-.26.16-.38.24-.36.24-.75.45-1.08-.07,0-.07-.1-.22-.08-.24,1-.78,0-1.73.29-2.62.32,0,.68.48,1.1,0a2,2,0,0,1-1.41-.58c-.19-.2-.38-.2-.66-.06S35,55.5,35,55.39Z" transform="translate(-1.85 -18)"/><path class="cls-41" d="M35.92,40l2.28,2.56c.12.12.14.29.37.37.74.25.72.64.08,1a20.15,20.15,0,0,1-3.29,1.94.57.57,0,0,1,.35-.6A.56.56,0,0,0,36,44.4c-.27,0-.16.59-.46.31a.68.68,0,0,1-.25-.78c.31-.61.55-1.18-.05-1.77-.12-.12,0-.33.09-.42C35.9,41.27,35.86,40.6,35.92,40Z" transform="translate(-1.85 -18)"/><path class="cls-32" d="M77.24,28.72a1.28,1.28,0,0,0-1,1.61c0,.14.34.27,0,.41s-.43.27-.6.05c-.43-.56-1.31-.75-1.38-1.61,0-.14,0-.26-.18-.2-.95.35-.27-.44-.44-.63.39-1.54,1.35-2.84,1.87-4.32.6-.25.41-.86.59-1.3.2.16.68.12.31.63a1.08,1.08,0,0,0,.1,1.43c.65.61.27,1.1,0,1.66a2.08,2.08,0,0,0-.35,1.68C76.4,28.74,77.1,28.18,77.24,28.72Z" transform="translate(-1.85 -18)"/><path class="cls-5" d="M48,60a5.7,5.7,0,0,0,.86-.54c.22-.22.51-.78.85-.32a1.16,1.16,0,0,1-.16,1.38c-.09.11-.32.13-.32.06C49.18,59.83,48.55,60.24,48,60Z" transform="translate(-1.85 -18)"/><path class="cls-5" d="M47.91,56.23c-.32,0-.39-.29-.5-.46-.26-.4.17-.66.28-1,0-.15.14-.3.34-.23s.19.16.18.18c-.27.39-.11.79,0,1.19C48.19,56,48,56.14,47.91,56.23Z" transform="translate(-1.85 -18)"/><path class="cls-5" d="M51.1,63.59c-.17.36-.57.34-.91.42-.15,0-.36-.06-.28-.24.14-.37.57-.4.87-.58S51.07,63.34,51.1,63.59Z" transform="translate(-1.85 -18)"/><path class="cls-5" d="M46.51,71.81c-.18-.06-.42-.09-.38-.33a.44.44,0,0,1,.45-.39c.19,0,.38.12.38.35S46.73,71.77,46.51,71.81Z" transform="translate(-1.85 -18)"/><path class="cls-5" d="M48.61,68.78c.13.11.43-.08.43.23s-.11.4-.34.34-.5,0-.5-.3S48.38,68.74,48.61,68.78Z" transform="translate(-1.85 -18)"/><path class="cls-42" d="M62.59,43.74h1.9c1.56-.15,3.14-.25,4.68-.55.32-.06.32.16.23.32a4.32,4.32,0,0,0-.88,3.09.69.69,0,0,1-.37.61c-.12.08-.29.15-.13.34.65.84-.19,1-.63,1.23s-.68.23-.85.61c-.34-.06-.69-.18-1,.18-.8-.24-1.66.26-2.45-.15.45-.71-.15-1.26-.28-1.87,0-.25-.5-.42-.27-.72s.58,0,.87,0a.75.75,0,0,1-.17-1.13,2,2,0,0,0-.9,1.05A.38.38,0,0,1,62,47a.23.23,0,0,1-.25-.23c0-1-.49-2-.33-3,0-.08.12-.13.2-.17C62,43.68,62.23,44,62.59,43.74Z" transform="translate(-1.85 -18)"/><path class="cls-40" d="M61.66,43.58a3.7,3.7,0,0,0,.4,2.21c.21.34-.38.68,0,1.08a3.51,3.51,0,0,1,1.35-1.72c.32.15.2.42.15.58-.14.41-.17.4.06.8.13.22,0,.31-.18.43s-.51-.16-.89,0c.87.33.54,1.24,1,1.79s-.25.46-.46.65c-.91.35-1.77-.2-2.66-.14,0,0-.1.06-.16.08-.06-.29-.38-.73.34-.57.23,0,.38,0,.27-.28-.23-.53.12-1-.07-1.64-.35-1.1-.2-1.16-1.46-.86h0c-.53-.57-.74-1.37-1.54-1.78-.2-.1-.76.38-.61-.21s.58-.1.9-.16c-.07-.33-.57-.35-.48-.76C59,43.26,60.28,43.84,61.66,43.58Z" transform="translate(-1.85 -18)"/><path class="cls-43" d="M47.36,41.3c.44-.81.93-1.6,1.3-2.43s.52-.29.78,0c-.27.56-.5,1.15-1.18,1.41.35.08.66-.3.87,0s-.15.5-.23.75c-.16.54-.72.78-1.09,1.18s-.35-.17-.31-.22C47.77,41.7,47.29,41.55,47.36,41.3Z" transform="translate(-1.85 -18)"/><path class="cls-40" d="M59.4,46c.28.64-.37.59-.64.78-.08.06-.27-.25-.24-.42.12-.51.5-.46.88-.36Z" transform="translate(-1.85 -18)"/><path class="cls-44" d="M86.45,40.15c-.46.39-.65,1.1-1.39,1.15.22,1.23-1,1.47-1.52,2.18,0,.06-.16.07-.25.1l-.07-.06s0-.06,0-.08h-.06c-.36.34-1,.55-1.17.21s-.5-1.14.3-1.49c0,0,0-.11,0-.17a.58.58,0,0,1,0-.23,1.08,1.08,0,0,0-.76-.77,2,2,0,0,1-.72-3.63.77.77,0,0,0,.48-.65c0-.26.16-.3.37-.28s.38.11.42.31c.12.6-.26,0-.35.15a1.51,1.51,0,0,0-.11.86.61.61,0,0,0,.29.45c.24.11.27-.11.33-.31.14-.5.3-.93,1-.58.53.27.18-.72.7-.59.3.08-.13.75.48.58.14,0,.18-.26.4-.19a2.22,2.22,0,0,0-.24,2c.07.22,0,.27-.11.37-.37.36,0,.61.14.89.28-.19.75.19.93-.37C86,38.84,86.18,39.84,86.45,40.15Z" transform="translate(-1.85 -18)"/><path class="cls-16" d="M80.82,37.36c-.12.27.17.68-.46.79-.27.05-.51,1.14-.27,1.29.44.29.23,1.08,1.06,1.07.51,0,1.08.51,1.51.91s-.2.3-.32.45c-.21-.18-.42-.17-.73.06.31-.17.52-.25.72-.06l.49.65c-1.57-.49,0,1-.6,1,.15-.16,1,.34.74-.65.36.2.3.47.33.7a4.45,4.45,0,0,1-1.54,1.25.79.79,0,0,1-.61-.63,1.07,1.07,0,0,0-1.62-.84.42.42,0,0,1-.57-.12,2.2,2.2,0,0,0-1.11-.62c0-2,0-4,0-6,0-.13,0-.25,0-.38.2.08.7-.85.65.22a.75.75,0,0,0,1.23.46c0,.34-.42.39-.31.63C79.94,37.87,80.26,36.83,80.82,37.36Z" transform="translate(-1.85 -18)"/><path class="cls-45" d="M87.76,36.58a1.65,1.65,0,0,1-.37,1.35c-.56,0-1.32.28-1.27-.78-.36,0-.26.4-.55.45-.28-.8.26-1.26.71-1.74l.11.06a4.27,4.27,0,0,1,.47.87C87.16,36.62,87.33,36,87.76,36.58Z" transform="translate(-1.85 -18)"/><path class="cls-45" d="M87.79,34.73c.45.51-.14,1,0,1.51-.12.06-.28,0-.35,0-.63.49-.89,0-1.14-.42h0c0-.68-.51-.2-.73-.37.28-.48.28-.47.83-.3.26.07.15-.16.22-.26.17-.27.43-.44.7-.13S87.57,35.15,87.79,34.73Z" transform="translate(-1.85 -18)"/><path class="cls-46" d="M84,32.85c.16-.3.3-.6.48-.89s.55-.57.86-.11c.51.78.27-.33.58-.17.19.43-.11,1,.39,1.45.14.11-.27.33-.43.17-.54-.55-1.23-.36-1.87-.44Z" transform="translate(-1.85 -18)"/><path class="cls-45" d="M85.32,34.13a10.29,10.29,0,0,1,1.22-.37c.13,0,.4-.15.47.11a.67.67,0,0,1-.07.43c-.09.18-.36.31-.45.18C86.22,34.12,85.8,34.39,85.32,34.13Z" transform="translate(-1.85 -18)"/><path class="cls-45" d="M87.39,38.11a2.27,2.27,0,0,1-.55,1.31A1.08,1.08,0,0,1,87.39,38.11Z" transform="translate(-1.85 -18)"/><path class="cls-19" d="M82.75,28.63c-.3.08-.4-.26-.66-.27s-.51,0-.6-.31c0-.13.05-.22.2-.25a.8.8,0,0,1,.76.21C82.62,28.18,82.8,28.35,82.75,28.63Z" transform="translate(-1.85 -18)"/><path class="cls-34" d="M80.46,30.22a1.63,1.63,0,0,1,.06-.45c.09-.18.2-.43.47-.35s.2.27.13.46.32.34.1.58-.51-.16-.76-.23Z" transform="translate(-1.85 -18)"/><path class="cls-19" d="M79.89,26.28c.39.1.86.21.82.68a.55.55,0,0,1-.79.48c.27-.38.41-.79,0-1.16Z" transform="translate(-1.85 -18)"/><path class="cls-19" d="M82,26.84c-.1.23.08.63-.34.65-.11,0-.37-.18-.27-.39s.25-.56.61-.25Z" transform="translate(-1.85 -18)"/><path class="cls-18" d="M52.7,44.13c-.22,0-.38.23-.31-.2s.14-.83.49-1c.19-.07.51.29.53.63C53.44,44.2,53,44.05,52.7,44.13Z" transform="translate(-1.85 -18)"/><path class="cls-14" d="M77.84,42.62c.78-.14.78-.14,1.42.68.29-.11.58-.7.63-.56.27.72,1.94-.14,1.45,1.32-.14.39.33.48.41.77l-1.12.63a18.18,18.18,0,0,0-2.46-1.33C77.53,43.74,78,43.1,77.84,42.62Z" transform="translate(-1.85 -18)"/><path class="cls-47" d="M66.54,49.38c.12-.29-.35-1,.58-.74a1,1,0,0,0,.89-.52c0-.1.28-.37-.1-.34-.21,0-.39.07-.39-.2s.09-.52.28-.54c.74-.08.45-.58.51-1,.08-.59-.24-1.26.44-1.77.26-.2.29-.72.42-1.1V43c.28-.07.58.18.87-.1a.29.29,0,0,1,.5.16c0,.18.34.51-.2.65s-.31.16,0,.53,1.18.66.2,1.23c-.09.05-.2.24-.17.32.41,1-.49,1.68-.51,2.57a.71.71,0,0,1-.78.79A14.09,14.09,0,0,1,66.54,49.38Z" transform="translate(-1.85 -18)"/><path class="cls-32" d="M86.28,35.86c.33.77,1,.09,1.49.38,0,.12,0,.23,0,.34-.28-.13-.53-.2-.54.27,0,.18-.07.4-.28.39s-.34-.19-.38-.44A6.33,6.33,0,0,0,86.28,35.86Z" transform="translate(-1.85 -18)"/><path class="cls-44" d="M82.33,41.87a1.31,1.31,0,0,1-.28,0c-.29,0-.08.79-.59.33-.12-.1-.25-.28-.07-.37s.66-.5,1,0Z" transform="translate(-1.85 -18)"/></svg>